<?xml version="1.0" encoding="utf-8" standalone="no"?>
<!DOCTYPE svg PUBLIC "-//W3C//DTD SVG 1.1//EN"
  "http://www.w3.org/Graphics/SVG/1.1/DTD/svg11.dtd">
<svg xmlns:xlink="http://www.w3.org/1999/xlink" width="747.949844pt" height="439.992pt" viewBox="0 0 747.949844 439.992" xmlns="http://www.w3.org/2000/svg" version="1.1">
 <metadata>
  <rdf:RDF xmlns:dc="http://purl.org/dc/elements/1.1/" xmlns:cc="http://creativecommons.org/ns#" xmlns:rdf="http://www.w3.org/1999/02/22-rdf-syntax-ns#">
   <cc:Work>
    <dc:type rdf:resource="http://purl.org/dc/dcmitype/StillImage"/>
    <dc:date>2026-07-03T10:42:55.838933</dc:date>
    <dc:format>image/svg+xml</dc:format>
    <dc:creator>
     <cc:Agent>
      <dc:title>Matplotlib v3.11.0, https://matplotlib.org/</dc:title>
     </cc:Agent>
    </dc:creator>
   </cc:Work>
  </rdf:RDF>
 </metadata>
 <defs>
  <style type="text/css">*{stroke-linejoin: round; stroke-linecap: butt}</style>
 </defs>
 <g id="figure_1">
  <g id="patch_1">
   <path d="M 0 439.992 
L 747.949844 439.992 
L 747.949844 0 
L 0 0 
z
" style="fill: #ffffff"/>
  </g>
  <g id="axes_1">
   <g id="patch_2">
    <path d="M 47.909844 432.792 
L 388.389844 432.792 
L 388.389844 81.45975 
L 47.909844 81.45975 
z
" style="fill: #ffffff"/>
   </g>
   <g id="matplotlib.axis_1"/>
   <g id="matplotlib.axis_2">
    <g id="ytick_1">
     <g id="line2d_1">
      <path d="M 47.909844 416.822637 
L 388.389844 416.822637 
" clip-path="url(#p50c4c2d63e)" style="fill: none; stroke: #b0b0b0; stroke-opacity: 0.2; stroke-width: 0.8; stroke-linecap: square"/>
     </g>
     <g id="line2d_2">
      <defs>
       <path id="m1bc210eb47" d="M 0 0 
L -3.5 0 
" style="stroke: #000000; stroke-width: 0.8"/>
      </defs>
      <g>
       <use xlink:href="#m1bc210eb47" x="47.909844" y="416.822637" style="stroke: #000000; stroke-width: 0.8"/>
      </g>
     </g>
     <g id="text_1">
      <text style="font-size: 11px; font-family: 'DejaVu Sans', 'Bitstream Vera Sans', 'Computer Modern Sans Serif', 'Lucida Grande', 'Verdana', 'Geneva', 'Lucid', 'Arial', 'Helvetica', 'Avant Garde', sans-serif; text-anchor: end" x="40.909844" y="421.001348" transform="rotate(-0 40.909844 421.001348)">−1.00</text>
     </g>
    </g>
    <g id="ytick_2">
     <g id="line2d_3">
      <path d="M 47.909844 376.898383 
L 388.389844 376.898383 
" clip-path="url(#p50c4c2d63e)" style="fill: none; stroke: #b0b0b0; stroke-opacity: 0.2; stroke-width: 0.8; stroke-linecap: square"/>
     </g>
     <g id="line2d_4">
      <g>
       <use xlink:href="#m1bc210eb47" x="47.909844" y="376.898383" style="stroke: #000000; stroke-width: 0.8"/>
      </g>
     </g>
     <g id="text_2">
      <text style="font-size: 11px; font-family: 'DejaVu Sans', 'Bitstream Vera Sans', 'Computer Modern Sans Serif', 'Lucida Grande', 'Verdana', 'Geneva', 'Lucid', 'Arial', 'Helvetica', 'Avant Garde', sans-serif; text-anchor: end" x="40.909844" y="381.077094" transform="rotate(-0 40.909844 381.077094)">−0.75</text>
     </g>
    </g>
    <g id="ytick_3">
     <g id="line2d_5">
      <path d="M 47.909844 336.974129 
L 388.389844 336.974129 
" clip-path="url(#p50c4c2d63e)" style="fill: none; stroke: #b0b0b0; stroke-opacity: 0.2; stroke-width: 0.8; stroke-linecap: square"/>
     </g>
     <g id="line2d_6">
      <g>
       <use xlink:href="#m1bc210eb47" x="47.909844" y="336.974129" style="stroke: #000000; stroke-width: 0.8"/>
      </g>
     </g>
     <g id="text_3">
      <text style="font-size: 11px; font-family: 'DejaVu Sans', 'Bitstream Vera Sans', 'Computer Modern Sans Serif', 'Lucida Grande', 'Verdana', 'Geneva', 'Lucid', 'Arial', 'Helvetica', 'Avant Garde', sans-serif; text-anchor: end" x="40.909844" y="341.15284" transform="rotate(-0 40.909844 341.15284)">−0.50</text>
     </g>
    </g>
    <g id="ytick_4">
     <g id="line2d_7">
      <path d="M 47.909844 297.049876 
L 388.389844 297.049876 
" clip-path="url(#p50c4c2d63e)" style="fill: none; stroke: #b0b0b0; stroke-opacity: 0.2; stroke-width: 0.8; stroke-linecap: square"/>
     </g>
     <g id="line2d_8">
      <g>
       <use xlink:href="#m1bc210eb47" x="47.909844" y="297.049876" style="stroke: #000000; stroke-width: 0.8"/>
      </g>
     </g>
     <g id="text_4">
      <text style="font-size: 11px; font-family: 'DejaVu Sans', 'Bitstream Vera Sans', 'Computer Modern Sans Serif', 'Lucida Grande', 'Verdana', 'Geneva', 'Lucid', 'Arial', 'Helvetica', 'Avant Garde', sans-serif; text-anchor: end" x="40.909844" y="301.228587" transform="rotate(-0 40.909844 301.228587)">−0.25</text>
     </g>
    </g>
    <g id="ytick_5">
     <g id="line2d_9">
      <path d="M 47.909844 257.125622 
L 388.389844 257.125622 
" clip-path="url(#p50c4c2d63e)" style="fill: none; stroke: #b0b0b0; stroke-opacity: 0.2; stroke-width: 0.8; stroke-linecap: square"/>
     </g>
     <g id="line2d_10">
      <g>
       <use xlink:href="#m1bc210eb47" x="47.909844" y="257.125622" style="stroke: #000000; stroke-width: 0.8"/>
      </g>
     </g>
     <g id="text_5">
      <text style="font-size: 11px; font-family: 'DejaVu Sans', 'Bitstream Vera Sans', 'Computer Modern Sans Serif', 'Lucida Grande', 'Verdana', 'Geneva', 'Lucid', 'Arial', 'Helvetica', 'Avant Garde', sans-serif; text-anchor: end" x="40.909844" y="261.304333" transform="rotate(-0 40.909844 261.304333)">0.00</text>
     </g>
    </g>
    <g id="ytick_6">
     <g id="line2d_11">
      <path d="M 47.909844 217.201368 
L 388.389844 217.201368 
" clip-path="url(#p50c4c2d63e)" style="fill: none; stroke: #b0b0b0; stroke-opacity: 0.2; stroke-width: 0.8; stroke-linecap: square"/>
     </g>
     <g id="line2d_12">
      <g>
       <use xlink:href="#m1bc210eb47" x="47.909844" y="217.201368" style="stroke: #000000; stroke-width: 0.8"/>
      </g>
     </g>
     <g id="text_6">
      <text style="font-size: 11px; font-family: 'DejaVu Sans', 'Bitstream Vera Sans', 'Computer Modern Sans Serif', 'Lucida Grande', 'Verdana', 'Geneva', 'Lucid', 'Arial', 'Helvetica', 'Avant Garde', sans-serif; text-anchor: end" x="40.909844" y="221.380079" transform="rotate(-0 40.909844 221.380079)">0.25</text>
     </g>
    </g>
    <g id="ytick_7">
     <g id="line2d_13">
      <path d="M 47.909844 177.277114 
L 388.389844 177.277114 
" clip-path="url(#p50c4c2d63e)" style="fill: none; stroke: #b0b0b0; stroke-opacity: 0.2; stroke-width: 0.8; stroke-linecap: square"/>
     </g>
     <g id="line2d_14">
      <g>
       <use xlink:href="#m1bc210eb47" x="47.909844" y="177.277114" style="stroke: #000000; stroke-width: 0.8"/>
      </g>
     </g>
     <g id="text_7">
      <text style="font-size: 11px; font-family: 'DejaVu Sans', 'Bitstream Vera Sans', 'Computer Modern Sans Serif', 'Lucida Grande', 'Verdana', 'Geneva', 'Lucid', 'Arial', 'Helvetica', 'Avant Garde', sans-serif; text-anchor: end" x="40.909844" y="181.455825" transform="rotate(-0 40.909844 181.455825)">0.50</text>
     </g>
    </g>
    <g id="ytick_8">
     <g id="line2d_15">
      <path d="M 47.909844 137.35286 
L 388.389844 137.35286 
" clip-path="url(#p50c4c2d63e)" style="fill: none; stroke: #b0b0b0; stroke-opacity: 0.2; stroke-width: 0.8; stroke-linecap: square"/>
     </g>
     <g id="line2d_16">
      <g>
       <use xlink:href="#m1bc210eb47" x="47.909844" y="137.35286" style="stroke: #000000; stroke-width: 0.8"/>
      </g>
     </g>
     <g id="text_8">
      <text style="font-size: 11px; font-family: 'DejaVu Sans', 'Bitstream Vera Sans', 'Computer Modern Sans Serif', 'Lucida Grande', 'Verdana', 'Geneva', 'Lucid', 'Arial', 'Helvetica', 'Avant Garde', sans-serif; text-anchor: end" x="40.909844" y="141.531571" transform="rotate(-0 40.909844 141.531571)">0.75</text>
     </g>
    </g>
    <g id="ytick_9">
     <g id="line2d_17">
      <path d="M 47.909844 97.428606 
L 388.389844 97.428606 
" clip-path="url(#p50c4c2d63e)" style="fill: none; stroke: #b0b0b0; stroke-opacity: 0.2; stroke-width: 0.8; stroke-linecap: square"/>
     </g>
     <g id="line2d_18">
      <g>
       <use xlink:href="#m1bc210eb47" x="47.909844" y="97.428606" style="stroke: #000000; stroke-width: 0.8"/>
      </g>
     </g>
     <g id="text_9">
      <text style="font-size: 11px; font-family: 'DejaVu Sans', 'Bitstream Vera Sans', 'Computer Modern Sans Serif', 'Lucida Grande', 'Verdana', 'Geneva', 'Lucid', 'Arial', 'Helvetica', 'Avant Garde', sans-serif; text-anchor: end" x="40.909844" y="101.607317" transform="rotate(-0 40.909844 101.607317)">1.00</text>
     </g>
    </g>
   </g>
   <g id="line2d_19">
    <path d="M 63.386207 257.125622 
L 75.171815 219.283198 
L 81.374766 200.098755 
L 86.337127 185.387186 
L 90.679193 173.106266 
L 95.021259 161.477654 
L 98.74303 152.098044 
L 102.464801 143.317614 
L 105.566277 136.494545 
L 108.667752 130.149462 
L 111.769228 124.307505 
L 114.870704 118.991824 
L 117.351884 115.132422 
L 119.833065 111.633147 
L 122.314245 108.502872 
L 124.795426 105.749537 
L 127.276606 103.380126 
L 129.137492 101.858668 
L 130.998377 100.558739 
L 132.859263 99.482192 
L 134.720148 98.630564 
L 136.581033 98.00507 
L 138.441919 97.606601 
L 140.302804 97.435728 
L 142.16369 97.492692 
L 144.024575 97.777414 
L 145.88546 98.289487 
L 147.746346 99.02818 
L 149.607231 99.992439 
L 151.468117 101.180889 
L 153.329002 102.591834 
L 155.189887 104.223261 
L 157.671068 106.737401 
L 160.152249 109.632958 
L 162.633429 112.902589 
L 165.11461 116.538001 
L 167.59579 120.529975 
L 170.697266 126.005847 
L 173.798742 132.001265 
L 176.900217 138.492472 
L 180.001693 145.453748 
L 183.723464 154.388807 
L 187.445235 163.909979 
L 191.7873 175.686155 
L 196.129366 188.09461 
L 201.091728 202.926142 
L 207.294679 222.220116 
L 215.978811 250.089982 
L 230.245599 295.94407 
L 236.44855 315.090481 
L 241.410911 329.760892 
L 245.752977 341.998325 
L 250.095043 353.576825 
L 253.816814 362.908502 
L 257.538585 371.63669 
L 260.640061 378.413146 
L 263.741536 384.709016 
L 266.843012 390.499353 
L 269.944488 395.761214 
L 272.425668 399.576116 
L 274.906849 403.029733 
L 277.388029 406.113305 
L 279.86921 408.819011 
L 282.35039 411.13999 
L 284.211276 412.624668 
L 286.072161 413.887487 
L 287.933047 414.926646 
L 289.793932 415.74066 
L 291.654817 416.32837 
L 293.515703 416.688937 
L 295.376588 416.821846 
L 297.237474 416.726907 
L 299.098359 416.404257 
L 300.959244 415.854354 
L 302.82013 415.077985 
L 304.681015 414.076256 
L 306.541901 412.850597 
L 308.402786 411.402757 
L 310.883967 409.130303 
L 313.365147 406.472333 
L 315.846328 403.435586 
L 318.327508 400.027765 
L 320.808689 396.257512 
L 323.289869 392.134391 
L 326.391345 386.500281 
L 329.492821 380.353541 
L 332.594296 373.718526 
L 336.316067 365.149132 
L 340.037838 355.963466 
L 343.759609 346.213931 
L 348.101675 334.201175 
L 353.064036 319.745236 
L 358.646692 302.731001 
L 365.469938 281.163911 
L 372.91348 257.125622 
L 372.91348 257.125622 
" clip-path="url(#p50c4c2d63e)" style="fill: none; stroke: #2563eb; stroke-width: 2.4; stroke-linecap: square"/>
   </g>
   <g id="line2d_20">
    <path d="M 63.386207 350.993172 
L 67.728273 339.255938 
L 72.070339 326.881061 
L 77.0327 312.081003 
L 83.235652 292.815566 
L 91.299488 266.972456 
L 106.806867 217.137979 
L 113.009818 198.038209 
L 117.972179 183.417953 
L 122.314245 171.233345 
L 126.656311 159.715586 
L 130.378082 150.441916 
L 134.099853 141.776876 
L 137.201329 135.056709 
L 140.302804 128.820224 
L 143.40428 123.092133 
L 146.505756 117.895133 
L 148.986936 114.133828 
L 151.468117 110.735183 
L 153.949297 107.707815 
L 156.430478 105.059404 
L 158.911658 102.796667 
L 160.772544 101.356201 
L 162.633429 100.13798 
L 164.494315 99.143742 
L 166.3552 98.374905 
L 168.216085 97.832567 
L 170.076971 97.517501 
L 171.937856 97.430157 
L 173.798742 97.57066 
L 175.659627 97.938808 
L 177.520512 98.534077 
L 179.381398 99.355617 
L 181.242283 100.402256 
L 183.103169 101.672501 
L 184.964054 103.16454 
L 187.445235 105.495213 
L 189.926415 108.210454 
L 192.407596 111.303376 
L 194.888776 114.766135 
L 197.369957 118.58995 
L 199.851137 122.765121 
L 202.952613 128.461966 
L 206.054089 134.668624 
L 209.155564 141.360502 
L 212.877335 149.993784 
L 216.599106 159.238251 
L 220.320877 169.041163 
L 224.662943 181.108936 
L 229.625304 195.617663 
L 235.20796 212.67779 
L 242.031206 234.280761 
L 265.602422 309.619323 
L 271.185078 326.337906 
L 276.147439 340.4599 
L 280.489505 352.12827 
L 284.211276 361.54596 
L 287.933047 370.367932 
L 291.034522 377.228096 
L 294.135998 383.612369 
L 297.237474 389.495455 
L 300.338949 394.854042 
L 302.82013 398.748933 
L 305.30131 402.284635 
L 307.782491 405.452183 
L 310.263671 408.243542 
L 312.744852 410.651632 
L 315.226032 412.670347 
L 317.086918 413.925738 
L 318.947803 414.957414 
L 320.808689 415.763902 
L 322.669574 416.344053 
L 324.53046 416.697037 
L 326.391345 416.822352 
L 328.25223 416.719819 
L 330.113116 416.389584 
L 331.974001 415.832119 
L 333.834887 415.048218 
L 335.695772 414.039 
L 337.556657 412.805905 
L 339.417543 411.350693 
L 341.898723 409.068527 
L 344.379904 406.401 
L 346.861084 403.354879 
L 349.342265 399.937887 
L 351.823445 396.158693 
L 354.304626 392.02688 
L 357.406102 386.382292 
L 360.507577 380.225541 
L 363.609053 373.581023 
L 367.330824 365.000947 
L 371.052595 355.805444 
L 372.91348 350.993172 
L 372.91348 350.993172 
" clip-path="url(#p50c4c2d63e)" style="fill: none; stroke: #f97316; stroke-width: 2.4; stroke-linecap: square"/>
   </g>
   <g id="line2d_21">
    <path d="M 47.909844 144.202779 
L 388.389844 144.202779 
" clip-path="url(#p50c4c2d63e)" style="fill: none; stroke-dasharray: 5.55,2.4; stroke-dashoffset: 0; stroke: #dc2626; stroke-width: 1.5"/>
   </g>
   <g id="patch_3">
    <path d="M 47.909844 432.792 
L 47.909844 81.45975 
" style="fill: none; stroke: #000000; stroke-width: 0.8; stroke-linejoin: miter; stroke-linecap: square"/>
   </g>
   <g id="patch_4">
    <path d="M 47.909844 432.792 
L 388.389844 432.792 
" style="fill: none; stroke: #000000; stroke-width: 0.8; stroke-linejoin: miter; stroke-linecap: square"/>
   </g>
   <g id="text_10">
    <text style="font-size: 13px; font-family: 'DejaVu Sans', 'Bitstream Vera Sans', 'Computer Modern Sans Serif', 'Lucida Grande', 'Verdana', 'Geneva', 'Lucid', 'Arial', 'Helvetica', 'Avant Garde', sans-serif; text-anchor: middle" x="218.149844" y="75.45975" transform="rotate(-0 218.149844 75.45975)">Sinusoidal AC</text>
   </g>
   <g id="legend_1">
    <g id="line2d_22">
     <path d="M 321.460781 93.248344 
L 330.460781 93.248344 
L 339.460781 93.248344 
" style="fill: none; stroke: #2563eb; stroke-width: 2.4; stroke-linecap: square"/>
    </g>
    <g id="text_11">
     <text style="font-size: 9px; font-family: 'DejaVu Sans', 'Bitstream Vera Sans', 'Computer Modern Sans Serif', 'Lucida Grande', 'Verdana', 'Geneva', 'Lucid', 'Arial', 'Helvetica', 'Avant Garde', sans-serif; text-anchor: start" x="346.660781" y="96.398344" transform="rotate(-0 346.660781 96.398344)">voltage</text>
    </g>
    <g id="line2d_23">
     <path d="M 321.460781 106.749047 
L 330.460781 106.749047 
L 339.460781 106.749047 
" style="fill: none; stroke: #f97316; stroke-width: 2.4; stroke-linecap: square"/>
    </g>
    <g id="text_12">
     <text style="font-size: 9px; font-family: 'DejaVu Sans', 'Bitstream Vera Sans', 'Computer Modern Sans Serif', 'Lucida Grande', 'Verdana', 'Geneva', 'Lucid', 'Arial', 'Helvetica', 'Avant Garde', sans-serif; text-anchor: start" x="346.660781" y="109.899047" transform="rotate(-0 346.660781 109.899047)">current</text>
    </g>
    <g id="line2d_24">
     <path d="M 321.460781 120.24975 
L 330.460781 120.24975 
L 339.460781 120.24975 
" style="fill: none; stroke-dasharray: 5.55,2.4; stroke-dashoffset: 0; stroke: #dc2626; stroke-width: 1.5"/>
    </g>
    <g id="text_13">
     <text style="font-size: 9px; font-family: 'DejaVu Sans', 'Bitstream Vera Sans', 'Computer Modern Sans Serif', 'Lucida Grande', 'Verdana', 'Geneva', 'Lucid', 'Arial', 'Helvetica', 'Avant Garde', sans-serif; text-anchor: start" x="346.660781" y="123.39975" transform="rotate(-0 346.660781 123.39975)">rms</text>
    </g>
   </g>
  </g>
  <g id="axes_2">
   <g id="patch_5">
    <path d="M 400.269844 432.792 
L 740.749844 432.792 
L 740.749844 81.45975 
L 400.269844 81.45975 
z
" style="fill: #ffffff"/>
   </g>
   <g id="patch_6">
    <path d="M 427.508244 292.2591 
L 488.794644 292.2591 
L 488.794644 221.99265 
L 427.508244 221.99265 
z
" clip-path="url(#p2e36124d45)" style="fill: #eff6ff; stroke: #2563eb; stroke-width: 1.8; stroke-linejoin: miter"/>
   </g>
   <g id="patch_7">
    <path d="M 539.866644 292.2591 
L 601.153044 292.2591 
L 601.153044 221.99265 
L 539.866644 221.99265 
z
" clip-path="url(#p2e36124d45)" style="fill: #eff6ff; stroke: #2563eb; stroke-width: 1.8; stroke-linejoin: miter"/>
   </g>
   <g id="patch_8">
    <path d="M 652.225044 292.2591 
L 713.511444 292.2591 
L 713.511444 221.99265 
L 652.225044 221.99265 
z
" clip-path="url(#p2e36124d45)" style="fill: #eff6ff; stroke: #2563eb; stroke-width: 1.8; stroke-linejoin: miter"/>
   </g>
   <g id="patch_9">
    <path d="M 490.792761 257.125875 
Q 514.330792 257.125875 535.632756 257.125875 
" clip-path="url(#p2e36124d45)" style="fill: none; stroke: #475569; stroke-width: 2; stroke-linecap: round"/>
    <path d="M 530.032756 254.325875 
L 535.632756 257.125875 
L 530.032756 259.925875 
z
" clip-path="url(#p2e36124d45)" style="fill: #475569; stroke: #475569; stroke-width: 2; stroke-linecap: round"/>
   </g>
   <g id="patch_10">
    <path d="M 603.151161 257.125875 
Q 626.689192 257.125875 647.991156 257.125875 
" clip-path="url(#p2e36124d45)" style="fill: none; stroke: #475569; stroke-width: 2; stroke-linecap: round"/>
    <path d="M 642.391156 254.325875 
L 647.991156 257.125875 
L 642.391156 259.925875 
z
" clip-path="url(#p2e36124d45)" style="fill: #475569; stroke: #475569; stroke-width: 2; stroke-linecap: round"/>
   </g>
   <g id="matplotlib.axis_3"/>
   <g id="matplotlib.axis_4"/>
   <g id="text_14">
    <text style="font-size: 10px; font-family: 'DejaVu Sans', 'Bitstream Vera Sans', 'Computer Modern Sans Serif', 'Lucida Grande', 'Verdana', 'Geneva', 'Lucid', 'Arial', 'Helvetica', 'Avant Garde', sans-serif; text-anchor: middle" x="458.151444" y="259.723922" transform="rotate(-0 458.151444 259.723922)">AC input</text>
   </g>
   <g id="text_15">
    <text style="font-size: 10px; font-family: 'DejaVu Sans', 'Bitstream Vera Sans', 'Computer Modern Sans Serif', 'Lucida Grande', 'Verdana', 'Geneva', 'Lucid', 'Arial', 'Helvetica', 'Avant Garde', sans-serif; text-anchor: middle" x="570.509844" y="259.723922" transform="rotate(-0 570.509844 259.723922)">transformer</text>
   </g>
   <g id="text_16">
    <text style="font-size: 10px; font-family: 'DejaVu Sans', 'Bitstream Vera Sans', 'Computer Modern Sans Serif', 'Lucida Grande', 'Verdana', 'Geneva', 'Lucid', 'Arial', 'Helvetica', 'Avant Garde', sans-serif; text-anchor: middle" x="682.868244" y="259.723922" transform="rotate(-0 682.868244 259.723922)">load</text>
   </g>
   <g id="text_17">
    <text style="font-size: 13px; font-family: 'DejaVu Sans', 'Bitstream Vera Sans', 'Computer Modern Sans Serif', 'Lucida Grande', 'Verdana', 'Geneva', 'Lucid', 'Arial', 'Helvetica', 'Avant Garde', sans-serif; text-anchor: middle" x="570.509844" y="75.45975" transform="rotate(-0 570.509844 75.45975)">Power transfer model</text>
   </g>
  </g>
  <g id="text_18">
   <text style="font-weight: 700; font-size: 16px; font-family: 'DejaVu Sans', 'Bitstream Vera Sans', 'Computer Modern Sans Serif', 'Lucida Grande', 'Verdana', 'Geneva', 'Lucid', 'Arial', 'Helvetica', 'Avant Garde', sans-serif; text-anchor: middle" x="374.629844" y="19.3575" transform="rotate(-0 374.629844 19.3575)">Alternating Currents</text>
  </g>
 </g>
 <defs>
  <clipPath id="p50c4c2d63e">
   <rect x="47.909844" y="81.45975" width="340.48" height="351.33225"/>
  </clipPath>
  <clipPath id="p2e36124d45">
   <rect x="400.269844" y="81.45975" width="340.48" height="351.33225"/>
  </clipPath>
 </defs>
</svg>
