<?xml version="1.0" encoding="utf-8" standalone="no"?>
<!DOCTYPE svg PUBLIC "-//W3C//DTD SVG 1.1//EN"
  "http://www.w3.org/Graphics/SVG/1.1/DTD/svg11.dtd">
<svg xmlns:xlink="http://www.w3.org/1999/xlink" width="746.64pt" height="436.315875pt" viewBox="0 0 746.64 436.315875" xmlns="http://www.w3.org/2000/svg" version="1.1">
 <metadata>
  <rdf:RDF xmlns:dc="http://purl.org/dc/elements/1.1/" xmlns:cc="http://creativecommons.org/ns#" xmlns:rdf="http://www.w3.org/1999/02/22-rdf-syntax-ns#">
   <cc:Work>
    <dc:type rdf:resource="http://purl.org/dc/dcmitype/StillImage"/>
    <dc:date>2026-07-03T10:42:55.588679</dc:date>
    <dc:format>image/svg+xml</dc:format>
    <dc:creator>
     <cc:Agent>
      <dc:title>Matplotlib v3.11.0, https://matplotlib.org/</dc:title>
     </cc:Agent>
    </dc:creator>
   </cc:Work>
  </rdf:RDF>
 </metadata>
 <defs>
  <style type="text/css">*{stroke-linejoin: round; stroke-linecap: butt}</style>
 </defs>
 <g id="figure_1">
  <g id="patch_1">
   <path d="M 0 436.315875 
L 746.64 436.315875 
L 746.64 0 
L 0 0 
z
" style="fill: #ffffff"/>
  </g>
  <g id="axes_1">
   <g id="patch_2">
    <path d="M 7.2 429.115875 
L 367.38 429.115875 
L 367.38 68.935875 
L 7.2 68.935875 
z
" style="fill: #ffffff"/>
   </g>
   <g id="patch_3">
    <path d="M 127.26 262.232475 
C 130.762431 262.232475 134.121884 260.840944 136.598476 258.364351 
C 139.075069 255.887759 140.4666 252.528306 140.4666 249.025875 
C 140.4666 245.523444 139.075069 242.163991 136.598476 239.687399 
C 134.121884 237.210806 130.762431 235.819275 127.26 235.819275 
C 123.757569 235.819275 120.398116 237.210806 117.921524 239.687399 
C 115.444931 242.163991 114.0534 245.523444 114.0534 249.025875 
C 114.0534 252.528306 115.444931 255.887759 117.921524 258.364351 
C 120.398116 260.840944 123.757569 262.232475 127.26 262.232475 
z
" clip-path="url(#p5ad8d87ea0)" style="fill: #dc2626; stroke: #dc2626; stroke-linejoin: miter"/>
   </g>
   <g id="patch_4">
    <path d="M 247.32 262.232475 
C 250.822431 262.232475 254.181884 260.840944 256.658476 258.364351 
C 259.135069 255.887759 260.5266 252.528306 260.5266 249.025875 
C 260.5266 245.523444 259.135069 242.163991 256.658476 239.687399 
C 254.181884 237.210806 250.822431 235.819275 247.32 235.819275 
C 243.817569 235.819275 240.458116 237.210806 237.981524 239.687399 
C 235.504931 242.163991 234.1134 245.523444 234.1134 249.025875 
C 234.1134 252.528306 235.504931 255.887759 237.981524 258.364351 
C 240.458116 260.840944 243.817569 262.232475 247.32 262.232475 
z
" clip-path="url(#p5ad8d87ea0)" style="fill: #2563eb; stroke: #2563eb; stroke-linejoin: miter"/>
   </g>
   <g id="patch_5">
    <path d="M 144.265264 334.868775 
Q 187.287979 334.868775 228.857249 334.868775 
" clip-path="url(#p5ad8d87ea0)" style="fill: none; stroke: #475569; stroke-width: 1.3; stroke-linecap: round"/>
    <path d="M 225.257249 333.068775 
L 228.857249 334.868775 
L 225.257249 336.668775 
z
" clip-path="url(#p5ad8d87ea0)" style="fill: #475569; stroke: #475569; stroke-width: 1.3; stroke-linecap: round"/>
   </g>
   <g id="patch_6">
    <path d="M 144.265264 306.254475 
Q 187.287979 306.254475 228.857249 306.254475 
" clip-path="url(#p5ad8d87ea0)" style="fill: none; stroke: #475569; stroke-width: 1.3; stroke-linecap: round"/>
    <path d="M 225.257249 304.454475 
L 228.857249 306.254475 
L 225.257249 308.054475 
z
" clip-path="url(#p5ad8d87ea0)" style="fill: #475569; stroke: #475569; stroke-width: 1.3; stroke-linecap: round"/>
   </g>
   <g id="patch_7">
    <path d="M 144.265264 277.640175 
Q 187.287979 277.640175 228.857249 277.640175 
" clip-path="url(#p5ad8d87ea0)" style="fill: none; stroke: #475569; stroke-width: 1.3; stroke-linecap: round"/>
    <path d="M 225.257249 275.840175 
L 228.857249 277.640175 
L 225.257249 279.440175 
z
" clip-path="url(#p5ad8d87ea0)" style="fill: #475569; stroke: #475569; stroke-width: 1.3; stroke-linecap: round"/>
   </g>
   <g id="patch_8">
    <path d="M 144.265264 249.025875 
Q 187.287979 249.025875 228.857249 249.025875 
" clip-path="url(#p5ad8d87ea0)" style="fill: none; stroke: #475569; stroke-width: 1.3; stroke-linecap: round"/>
    <path d="M 225.257249 247.225875 
L 228.857249 249.025875 
L 225.257249 250.825875 
z
" clip-path="url(#p5ad8d87ea0)" style="fill: #475569; stroke: #475569; stroke-width: 1.3; stroke-linecap: round"/>
   </g>
   <g id="patch_9">
    <path d="M 144.265264 220.411575 
Q 187.287979 220.411575 228.857249 220.411575 
" clip-path="url(#p5ad8d87ea0)" style="fill: none; stroke: #475569; stroke-width: 1.3; stroke-linecap: round"/>
    <path d="M 225.257249 218.611575 
L 228.857249 220.411575 
L 225.257249 222.211575 
z
" clip-path="url(#p5ad8d87ea0)" style="fill: #475569; stroke: #475569; stroke-width: 1.3; stroke-linecap: round"/>
   </g>
   <g id="patch_10">
    <path d="M 144.265264 191.797275 
Q 187.287979 191.797275 228.857249 191.797275 
" clip-path="url(#p5ad8d87ea0)" style="fill: none; stroke: #475569; stroke-width: 1.3; stroke-linecap: round"/>
    <path d="M 225.257249 189.997275 
L 228.857249 191.797275 
L 225.257249 193.597275 
z
" clip-path="url(#p5ad8d87ea0)" style="fill: #475569; stroke: #475569; stroke-width: 1.3; stroke-linecap: round"/>
   </g>
   <g id="patch_11">
    <path d="M 144.265264 163.182975 
Q 187.287979 163.182975 228.857249 163.182975 
" clip-path="url(#p5ad8d87ea0)" style="fill: none; stroke: #475569; stroke-width: 1.3; stroke-linecap: round"/>
    <path d="M 225.257249 161.382975 
L 228.857249 163.182975 
L 225.257249 164.982975 
z
" clip-path="url(#p5ad8d87ea0)" style="fill: #475569; stroke: #475569; stroke-width: 1.3; stroke-linecap: round"/>
   </g>
   <g id="matplotlib.axis_1"/>
   <g id="matplotlib.axis_2"/>
   <g id="text_1">
    <text style="font-size: 18px; font-family: 'DejaVu Sans', 'Bitstream Vera Sans', 'Computer Modern Sans Serif', 'Lucida Grande', 'Verdana', 'Geneva', 'Lucid', 'Arial', 'Helvetica', 'Avant Garde', sans-serif; text-anchor: middle; fill: #dc2626" x="127.26" y="222.012375" transform="rotate(-0 127.26 222.012375)">+</text>
   </g>
   <g id="text_2">
    <text style="font-size: 18px; font-family: 'DejaVu Sans', 'Bitstream Vera Sans', 'Computer Modern Sans Serif', 'Lucida Grande', 'Verdana', 'Geneva', 'Lucid', 'Arial', 'Helvetica', 'Avant Garde', sans-serif; text-anchor: middle; fill: #2563eb" x="247.32" y="222.012375" transform="rotate(-0 247.32 222.012375)">-</text>
   </g>
   <g id="text_3">
    <text style="font-size: 13px; font-family: 'DejaVu Sans', 'Bitstream Vera Sans', 'Computer Modern Sans Serif', 'Lucida Grande', 'Verdana', 'Geneva', 'Lucid', 'Arial', 'Helvetica', 'Avant Garde', sans-serif; text-anchor: middle" x="187.29" y="62.935875" transform="rotate(-0 187.29 62.935875)">Field lines point from + to -</text>
   </g>
  </g>
  <g id="axes_2">
   <g id="patch_12">
    <path d="M 379.26 429.115875 
L 739.44 429.115875 
L 739.44 68.935875 
L 379.26 68.935875 
z
" style="fill: #ffffff"/>
   </g>
   <g id="matplotlib.axis_3"/>
   <g id="matplotlib.axis_4"/>
   <g id="QuadContourSet_1">
    <path d="M 627.223116 281.005301 
L 623.603216 280.055296 
L 620.647157 278.890046 
L 619.983317 278.603971 
L 617.170666 277.080096 
L 616.363417 276.594902 
L 614.479031 275.270146 
L 612.286394 273.460197 
L 610.436106 271.650247 
L 608.854382 269.840297 
L 607.313668 267.769031 
L 605.503719 264.793378 
L 604.413537 262.600498 
L 603.047422 258.980599 
L 602.143404 255.360699 
L 601.650687 251.7408 
L 601.550512 248.1209 
L 601.852953 244.501001 
L 602.538117 240.881101 
L 603.047422 239.071151 
L 604.413537 235.451252 
L 605.503719 233.258372 
L 606.307299 231.831352 
L 607.491538 230.021403 
L 609.123618 227.883905 
L 610.933568 225.880518 
L 612.743518 224.178665 
L 614.553467 222.723619 
L 617.170666 220.971654 
L 618.173367 220.371222 
L 620.647157 219.161704 
L 621.793266 218.656201 
L 623.603216 217.996454 
L 627.223116 217.046449 
L 630.843015 216.525689 
L 634.462915 216.434032 
L 638.082814 216.761373 
L 641.702714 217.522921 
L 643.512663 218.059379 
L 646.306447 219.161704 
L 647.132563 219.524977 
L 649.811822 220.971654 
L 650.752462 221.543616 
L 652.562412 222.809228 
L 654.745609 224.591553 
L 656.619679 226.401503 
L 658.222085 228.211453 
L 659.802211 230.309523 
L 661.612161 233.236903 
L 662.737726 235.451252 
L 664.130068 239.071151 
L 664.648036 240.881101 
L 665.349103 244.501001 
L 665.657966 248.1209 
L 665.555739 251.7408 
L 665.04832 255.360699 
L 664.648036 257.170649 
L 664.130068 258.980599 
L 662.737726 262.600498 
L 661.612161 264.814847 
L 660.811507 266.220398 
L 659.606038 268.030347 
L 657.992261 270.112257 
L 656.182312 272.097418 
L 654.372362 273.789704 
L 652.524598 275.270146 
L 649.811822 277.080096 
L 648.942513 277.594919 
L 646.306447 278.890046 
L 645.322613 279.32256 
L 643.512663 279.992371 
L 639.892764 280.962338 
L 636.272864 281.5073 
L 632.652965 281.623977 
L 629.033065 281.321498 
L 627.223116 281.005301 
L 627.223116 281.005301 
" clip-path="url(#pb928a0ca20)" style="fill: none; stroke-dasharray: 3.7,1.6; stroke-dashoffset: 0; stroke: #7c3aed"/>
    <path d="M 627.223116 288.201481 
L 623.603216 287.299525 
L 619.983317 285.983871 
L 618.173367 285.178984 
L 614.553467 283.181177 
L 612.743518 281.975704 
L 610.933568 280.606261 
L 608.935323 278.890046 
L 607.092171 277.080096 
L 605.473918 275.270146 
L 603.693769 272.983729 
L 601.645488 269.840297 
L 599.764551 266.220398 
L 598.322444 262.600498 
L 597.24545 258.980599 
L 596.536339 255.360699 
L 596.137408 251.7408 
L 596.057676 248.1209 
L 596.297956 244.501001 
L 596.847466 240.881101 
L 597.735967 237.261202 
L 598.986449 233.641302 
L 600.643653 230.021403 
L 602.768908 226.401503 
L 604.040941 224.591553 
L 605.503719 222.745945 
L 607.313668 220.737769 
L 609.123618 218.985928 
L 611.055442 217.351754 
L 613.543988 215.541805 
L 614.553467 214.870573 
L 618.173367 212.872766 
L 621.793266 211.354353 
L 625.413166 210.260299 
L 629.033065 209.528408 
L 632.652965 209.161274 
L 636.272864 209.142899 
L 639.892764 209.470486 
L 643.512663 210.160468 
L 647.132563 211.195809 
L 650.752462 212.644416 
L 654.372362 214.543021 
L 656.182312 215.690345 
L 658.481027 217.351754 
L 660.645969 219.161704 
L 662.531398 220.971654 
L 664.190561 222.781604 
L 665.657462 224.591553 
L 668.124581 228.211453 
L 670.062881 231.831352 
L 671.560309 235.451252 
L 672.655049 239.071151 
L 673.411433 242.691051 
L 673.816405 246.31095 
L 673.89609 249.93085 
L 673.655724 253.550749 
L 673.079612 257.170649 
L 672.153 260.790548 
L 670.855271 264.410448 
L 669.148639 268.030347 
L 668.124581 269.840297 
L 666.956556 271.650247 
L 665.23206 273.998291 
L 663.422111 276.13055 
L 661.612161 277.991429 
L 659.802211 279.629997 
L 657.992261 281.078262 
L 654.372362 283.508729 
L 650.752462 285.407334 
L 647.132563 286.855941 
L 643.512663 287.891282 
L 639.892764 288.581264 
L 636.272864 288.908851 
L 632.652965 288.890476 
L 629.033065 288.523342 
L 627.223116 288.201481 
L 627.223116 288.201481 
" clip-path="url(#pb928a0ca20)" style="fill: none; stroke-dasharray: 3.7,1.6; stroke-dashoffset: 0; stroke: #7c3aed"/>
    <path d="M 630.843015 299.029243 
L 627.223116 298.406506 
L 623.603216 297.479571 
L 619.983317 296.232172 
L 616.363417 294.628615 
L 612.743518 292.634372 
L 609.123618 290.179754 
L 606.366643 287.939795 
L 604.405005 286.129845 
L 602.646699 284.319895 
L 601.060895 282.509945 
L 599.625585 280.699996 
L 597.137809 277.080096 
L 595.085977 273.460197 
L 593.401196 269.840297 
L 592.040231 266.220398 
L 590.981709 262.600498 
L 590.174935 258.980599 
L 589.634912 255.360699 
L 589.341746 251.7408 
L 589.283715 248.1209 
L 589.458414 244.501001 
L 589.872995 240.881101 
L 590.543463 237.261202 
L 591.473645 233.641302 
L 592.83407 229.648431 
L 594.201181 226.401503 
L 596.063067 222.781604 
L 597.137809 220.971654 
L 599.625585 217.351754 
L 601.883819 214.572641 
L 604.405005 211.921905 
L 606.366643 210.111955 
L 609.123618 207.871996 
L 612.743518 205.417378 
L 616.363417 203.423135 
L 619.983317 201.819578 
L 623.603216 200.572179 
L 627.223116 199.645244 
L 630.843015 199.022507 
L 634.462915 198.678031 
L 638.082814 198.620042 
L 641.702714 198.843953 
L 645.322613 199.351715 
L 648.942513 200.130837 
L 652.562412 201.229217 
L 656.182312 202.639386 
L 659.802211 204.400685 
L 663.317473 206.492056 
L 665.23206 207.79805 
L 668.197183 210.111955 
L 670.66191 212.33165 
L 673.718266 215.541805 
L 676.091759 218.494869 
L 677.901709 221.086789 
L 679.999405 224.591553 
L 681.784398 228.211453 
L 683.228259 231.831352 
L 684.377702 235.451252 
L 685.22047 239.071151 
L 685.813259 242.691051 
L 686.134832 246.31095 
L 686.198482 249.93085 
L 686.006868 253.550749 
L 685.552012 257.170649 
L 684.833909 260.790548 
L 683.842389 264.410448 
L 682.55412 268.030347 
L 680.9407 271.650247 
L 678.971353 275.270146 
L 676.588536 278.890046 
L 674.281809 281.84421 
L 672.061934 284.319895 
L 668.85196 287.380249 
L 665.913316 289.749744 
L 663.317473 291.559694 
L 659.802211 293.651065 
L 656.182312 295.412364 
L 652.562412 296.822533 
L 648.942513 297.920913 
L 645.322613 298.700035 
L 641.702714 299.207797 
L 638.082814 299.431708 
L 634.462915 299.373719 
L 630.843015 299.029243 
L 630.843015 299.029243 
" clip-path="url(#pb928a0ca20)" style="fill: none; stroke-dasharray: 3.7,1.6; stroke-dashoffset: 0; stroke: #7c3aed"/>
    <path d="M 629.033065 315.123326 
L 625.413166 314.187768 
L 621.793266 312.982928 
L 618.09141 311.469141 
L 614.396719 309.659192 
L 610.933568 307.662612 
L 607.313668 305.216447 
L 603.693769 302.329443 
L 600.073869 298.945321 
L 598.233828 296.989543 
L 595.213663 293.369644 
L 593.866994 291.559694 
L 591.456087 287.939795 
L 590.376725 286.129845 
L 588.443292 282.509945 
L 586.780664 278.890046 
L 585.362632 275.270146 
L 584.16182 271.650247 
L 583.164471 268.030347 
L 582.360532 264.410448 
L 581.737308 260.790548 
L 581.28075 257.170649 
L 580.994714 253.550749 
L 580.873229 249.93085 
L 580.913649 246.31095 
L 581.116863 242.691051 
L 581.487222 239.071151 
L 582.030273 235.451252 
L 582.737991 231.831352 
L 583.784322 227.713907 
L 584.733297 224.591553 
L 586.042325 220.971654 
L 587.582357 217.351754 
L 589.375937 213.731855 
L 591.456087 210.111955 
L 593.866994 206.492056 
L 596.45397 203.122465 
L 598.26392 201.028007 
L 601.782802 197.442307 
L 603.802335 195.632357 
L 607.313668 192.835303 
L 611.247832 190.202508 
L 614.553467 188.304776 
L 618.173367 186.543783 
L 621.793266 185.068822 
L 625.413166 183.863982 
L 629.033065 182.928424 
L 632.652965 182.208502 
L 636.272864 181.729681 
L 639.892764 181.474857 
L 643.512663 181.434664 
L 647.132563 181.606568 
L 650.752462 181.994119 
L 654.372362 182.6063 
L 657.992261 183.435843 
L 661.612161 184.499936 
L 665.23206 185.798214 
L 668.85196 187.356221 
L 672.471859 189.188525 
L 676.091759 191.320738 
L 679.754781 193.822408 
L 683.331558 196.630964 
L 686.259058 199.252257 
L 688.761407 201.761114 
L 691.374682 204.682106 
L 694.212145 208.302006 
L 696.693242 211.921905 
L 698.846407 215.541805 
L 700.712197 219.161704 
L 702.317907 222.781604 
L 703.679968 226.401503 
L 704.816719 230.021403 
L 705.748035 233.641302 
L 706.46739 237.261202 
L 706.987153 240.881101 
L 707.324193 244.501001 
L 707.46725 248.1209 
L 707.419657 251.7408 
L 707.180303 255.360699 
L 706.749097 258.980599 
L 706.134375 262.600498 
L 705.050955 267.151628 
L 704.279631 269.840297 
L 703.023712 273.460197 
L 701.431055 277.314375 
L 699.621106 281.050397 
L 697.799845 284.319895 
L 695.497732 287.939795 
L 692.381307 292.137722 
L 689.79391 295.179594 
L 686.951457 298.130646 
L 684.274415 300.609443 
L 681.521608 302.893342 
L 677.901709 305.541705 
L 674.248963 307.849242 
L 670.66191 309.809961 
L 667.04201 311.49992 
L 663.422111 312.9326 
L 659.802211 314.116575 
L 656.011415 315.089041 
L 652.562412 315.780377 
L 648.942513 316.278803 
L 645.322613 316.557734 
L 641.702714 316.62351 
L 638.082814 316.476725 
L 634.462915 316.111533 
L 630.843015 315.514824 
L 629.033065 315.123326 
L 629.033065 315.123326 
" clip-path="url(#pb928a0ca20)" style="fill: none; stroke-dasharray: 3.7,1.6; stroke-dashoffset: 0; stroke: #7c3aed"/>
    <path d="M 739.44 309.294548 
L 737.63005 311.914208 
L 735.278381 315.089041 
L 732.200201 318.886273 
L 728.580302 322.932272 
L 724.960402 326.585027 
L 721.340503 329.896729 
L 717.365266 333.188538 
L 714.100704 335.651823 
L 709.755605 338.618388 
L 706.841289 340.428337 
L 703.241005 342.480192 
L 699.621106 344.345585 
L 696.001206 346.023515 
L 692.006392 347.668136 
L 688.761407 348.861295 
L 683.331558 350.555221 
L 677.901709 351.895454 
L 674.281809 352.598249 
L 668.85196 353.370935 
L 665.23206 353.70551 
L 661.612161 353.89048 
L 657.992261 353.926901 
L 654.372362 353.813917 
L 650.752462 353.548513 
L 646.952866 353.097986 
L 643.512663 352.557926 
L 639.892764 351.821757 
L 634.462915 350.403545 
L 630.843015 349.230709 
L 626.735044 347.668136 
L 623.603216 346.324201 
L 619.042637 344.048237 
L 615.83502 342.238287 
L 612.743518 340.313061 
L 609.123618 337.801698 
L 605.503719 334.966284 
L 601.447013 331.378589 
L 598.26392 328.223774 
L 594.62236 324.13879 
L 591.024121 319.544783 
L 587.985199 315.089041 
L 585.779082 311.469141 
L 584.759814 309.659192 
L 582.869888 306.039292 
L 581.165428 302.419393 
L 578.922088 296.989543 
L 577.015796 291.559694 
L 575.410091 286.129845 
L 574.076394 280.699996 
L 572.924623 274.876929 
L 572.132541 269.840297 
L 571.48897 264.410448 
L 571.047746 258.980599 
L 570.79531 253.550749 
L 570.732602 248.1209 
L 570.858179 242.691051 
L 571.173799 237.261202 
L 571.680226 231.831352 
L 572.394684 226.401503 
L 573.326798 220.971654 
L 574.493513 215.541805 
L 575.913812 210.111955 
L 577.615974 204.682106 
L 579.630417 199.252257 
L 581.165428 195.632357 
L 582.869888 192.012458 
L 584.759814 188.392558 
L 587.404221 183.86842 
L 590.431644 179.34281 
L 592.83407 176.114598 
L 596.45397 171.790563 
L 600.073869 167.985399 
L 603.693769 164.621836 
L 607.823255 161.243312 
L 610.933568 158.956644 
L 614.553467 156.576266 
L 619.042637 154.003513 
L 621.793266 152.58393 
L 627.223116 150.177145 
L 631.595512 148.573664 
L 634.462915 147.648205 
L 638.082814 146.666247 
L 641.702714 145.839841 
L 645.322613 145.190234 
L 650.752462 144.503237 
L 654.372362 144.237833 
L 657.992261 144.124849 
L 661.612161 144.16127 
L 665.23206 144.34624 
L 668.85196 144.680815 
L 674.281809 145.453501 
L 677.901709 146.156296 
L 683.331558 147.496529 
L 686.951457 148.591229 
L 690.571357 149.836261 
L 694.191256 151.251901 
L 697.811156 152.842041 
L 701.431055 154.613134 
L 705.050955 156.574767 
L 709.755605 159.433362 
L 712.461961 161.243312 
L 715.910653 163.739021 
L 719.600565 166.673161 
L 723.718175 170.293061 
L 727.426542 173.91296 
L 730.787557 177.53286 
L 734.010151 181.357246 
L 736.645184 184.772659 
L 739.44 188.757202 
L 739.44 188.757202 
" clip-path="url(#pb928a0ca20)" style="fill: none; stroke-dasharray: 3.7,1.6; stroke-dashoffset: 0; stroke: #7c3aed"/>
    <path d="M 559.35 429.115875 
L 559.35 68.935875 
L 559.35 68.935875 
" clip-path="url(#pb928a0ca20)" style="fill: none; stroke: #7c3aed"/>
    <path d="M 379.26 309.294548 
L 381.06995 311.914208 
L 383.421619 315.089041 
L 386.499799 318.886273 
L 390.119698 322.932272 
L 393.739598 326.585027 
L 397.359497 329.896729 
L 401.334734 333.188538 
L 404.599296 335.651823 
L 408.944395 338.618388 
L 411.858711 340.428337 
L 415.458995 342.480192 
L 419.078894 344.345585 
L 422.698794 346.023515 
L 426.693608 347.668136 
L 429.938593 348.861295 
L 435.368442 350.555221 
L 440.798291 351.895454 
L 444.418191 352.598249 
L 449.84804 353.370935 
L 453.46794 353.70551 
L 457.087839 353.89048 
L 460.707739 353.926901 
L 464.327638 353.813917 
L 467.947538 353.548513 
L 471.747134 353.097986 
L 475.187337 352.557926 
L 478.807236 351.821757 
L 484.237085 350.403545 
L 487.856985 349.230709 
L 491.964956 347.668136 
L 495.096784 346.324201 
L 499.657363 344.048237 
L 502.86498 342.238287 
L 505.956482 340.313061 
L 509.576382 337.801698 
L 513.196281 334.966284 
L 517.252987 331.378589 
L 520.43608 328.223774 
L 524.07764 324.13879 
L 527.675879 319.544783 
L 530.714801 315.089041 
L 532.920918 311.469141 
L 533.940186 309.659192 
L 535.830112 306.039292 
L 537.534572 302.419393 
L 539.777912 296.989543 
L 541.684204 291.559694 
L 543.289909 286.129845 
L 544.623606 280.699996 
L 545.775377 274.876929 
L 546.567459 269.840297 
L 547.21103 264.410448 
L 547.652254 258.980599 
L 547.90469 253.550749 
L 547.967398 248.1209 
L 547.841821 242.691051 
L 547.526201 237.261202 
L 547.019774 231.831352 
L 546.305316 226.401503 
L 545.373202 220.971654 
L 544.206487 215.541805 
L 542.786188 210.111955 
L 541.084026 204.682106 
L 539.069583 199.252257 
L 537.534572 195.632357 
L 535.830112 192.012458 
L 533.940186 188.392558 
L 531.295779 183.86842 
L 528.268356 179.34281 
L 525.86593 176.114598 
L 522.24603 171.790563 
L 518.626131 167.985399 
L 515.006231 164.621836 
L 510.876745 161.243312 
L 507.766432 158.956644 
L 504.146533 156.576266 
L 499.657363 154.003513 
L 496.906734 152.58393 
L 491.476884 150.177145 
L 487.104488 148.573664 
L 484.237085 147.648205 
L 480.617186 146.666247 
L 476.997286 145.839841 
L 473.377387 145.190234 
L 467.947538 144.503237 
L 464.327638 144.237833 
L 460.707739 144.124849 
L 457.087839 144.16127 
L 453.46794 144.34624 
L 449.84804 144.680815 
L 444.418191 145.453501 
L 440.798291 146.156296 
L 435.368442 147.496529 
L 431.748543 148.591229 
L 428.128643 149.836261 
L 424.508744 151.251901 
L 420.888844 152.842041 
L 417.268945 154.613134 
L 413.649045 156.574767 
L 408.944395 159.433362 
L 406.238039 161.243312 
L 402.789347 163.739021 
L 399.099435 166.673161 
L 394.981825 170.293061 
L 391.273458 173.91296 
L 387.912443 177.53286 
L 384.689849 181.357246 
L 382.054816 184.772659 
L 379.26 188.757202 
L 379.26 188.757202 
" clip-path="url(#pb928a0ca20)" style="fill: none; stroke: #7c3aed"/>
    <path d="M 464.327638 315.44545 
L 466.137588 315.780377 
L 467.947538 316.057631 
L 469.757487 316.278803 
L 471.567437 316.445182 
L 473.377387 316.557734 
L 475.187337 316.617086 
L 476.997286 316.62351 
L 478.807236 316.576893 
L 480.617186 316.476725 
L 482.427136 316.322069 
L 484.237085 316.111533 
L 486.047035 315.843248 
L 487.856985 315.514824 
L 489.666935 315.123326 
L 489.803267 315.089041 
L 491.476884 314.688152 
L 493.286834 314.187768 
L 495.096784 313.615541 
L 496.040752 313.279091 
L 496.906734 312.982928 
L 498.716683 312.288927 
L 500.526633 311.507967 
L 500.60859 311.469141 
L 502.336583 310.676557 
L 504.146533 309.746974 
L 504.303281 309.659192 
L 505.956482 308.756522 
L 507.452168 307.849242 
L 507.766432 307.662612 
L 509.576382 306.489254 
L 510.210987 306.039292 
L 511.386332 305.216447 
L 512.673546 304.229342 
L 513.196281 303.83146 
L 514.897665 302.419393 
L 515.006231 302.329443 
L 516.816181 300.706944 
L 516.917198 300.609443 
L 518.626131 298.945321 
L 518.765492 298.799493 
L 520.43608 297.023743 
L 520.466172 296.989543 
L 522.034524 295.179594 
L 522.24603 294.929285 
L 523.486337 293.369644 
L 524.05598 292.628273 
L 524.833006 291.559694 
L 525.86593 290.076689 
L 526.082632 289.749744 
L 527.243913 287.939795 
L 527.675879 287.23357 
L 528.323275 286.129845 
L 529.324063 284.319895 
L 529.485829 284.014602 
L 530.256708 282.509945 
L 531.117643 280.699996 
L 531.295779 280.305631 
L 531.919336 278.890046 
L 532.657675 277.080096 
L 533.105729 275.893733 
L 533.337368 275.270146 
L 533.966703 273.460197 
L 534.53818 271.650247 
L 534.915678 270.337843 
L 535.058134 269.840297 
L 535.535529 268.030347 
L 535.962009 266.220398 
L 536.339468 264.410448 
L 536.669727 262.600498 
L 536.725628 262.251073 
L 536.962692 260.790548 
L 537.212778 258.980599 
L 537.41925 257.170649 
L 537.583137 255.360699 
L 537.705286 253.550749 
L 537.786351 251.7408 
L 537.826771 249.93085 
L 537.826771 248.1209 
L 537.786351 246.31095 
L 537.705286 244.501001 
L 537.583137 242.691051 
L 537.41925 240.881101 
L 537.212778 239.071151 
L 536.962692 237.261202 
L 536.725628 235.800677 
L 536.669727 235.451252 
L 536.339468 233.641302 
L 535.962009 231.831352 
L 535.535529 230.021403 
L 535.058134 228.211453 
L 534.915678 227.713907 
L 534.53818 226.401503 
L 533.966703 224.591553 
L 533.337368 222.781604 
L 533.105729 222.158017 
L 532.657675 220.971654 
L 531.919336 219.161704 
L 531.295779 217.746119 
L 531.117643 217.351754 
L 530.256708 215.541805 
L 529.485829 214.037148 
L 529.324063 213.731855 
L 528.323275 211.921905 
L 527.675879 210.81818 
L 527.243913 210.111955 
L 526.082632 208.302006 
L 525.86593 207.975061 
L 524.833006 206.492056 
L 524.05598 205.423477 
L 523.486337 204.682106 
L 522.24603 203.122465 
L 522.034524 202.872156 
L 520.466172 201.062207 
L 520.43608 201.028007 
L 518.765492 199.252257 
L 518.626131 199.106429 
L 516.917198 197.442307 
L 516.816181 197.344806 
L 515.006231 195.722307 
L 514.897665 195.632357 
L 513.196281 194.22029 
L 512.673546 193.822408 
L 511.386332 192.835303 
L 510.210987 192.012458 
L 509.576382 191.562496 
L 507.766432 190.389138 
L 507.452168 190.202508 
L 505.956482 189.295228 
L 504.303281 188.392558 
L 504.146533 188.304776 
L 502.336583 187.375193 
L 500.60859 186.582609 
L 500.526633 186.543783 
L 498.716683 185.762823 
L 496.906734 185.068822 
L 496.040752 184.772659 
L 495.096784 184.436209 
L 493.286834 183.863982 
L 491.476884 183.363598 
L 489.803267 182.962709 
L 489.666935 182.928424 
L 487.856985 182.536926 
L 486.047035 182.208502 
L 484.237085 181.940217 
L 482.427136 181.729681 
L 480.617186 181.575025 
L 478.807236 181.474857 
L 476.997286 181.42824 
L 475.187337 181.434664 
L 473.377387 181.494016 
L 471.567437 181.606568 
L 469.757487 181.772947 
L 467.947538 181.994119 
L 466.137588 182.271373 
L 464.327638 182.6063 
L 462.688585 182.962709 
L 462.517688 182.999107 
L 460.707739 183.435843 
L 458.897789 183.935175 
L 457.087839 184.499936 
L 456.294511 184.772659 
L 455.277889 185.11915 
L 453.46794 185.798214 
L 451.65799 186.55183 
L 451.588682 186.582609 
L 449.84804 187.356221 
L 448.03809 188.241789 
L 447.748001 188.392558 
L 446.228141 189.188525 
L 444.451037 190.202508 
L 444.418191 190.221479 
L 442.608241 191.320738 
L 441.547174 192.012458 
L 440.798291 192.510045 
L 438.988342 193.79063 
L 438.945219 193.822408 
L 437.178392 195.158408 
L 436.583722 195.632357 
L 435.368442 196.630964 
L 434.425585 197.442307 
L 433.558492 198.21531 
L 432.440942 199.252257 
L 431.748543 199.921104 
L 430.606919 201.062207 
L 429.938593 201.761114 
L 428.90609 202.872156 
L 428.128643 203.751799 
L 427.325318 204.682106 
L 426.318693 205.914028 
L 425.854893 206.492056 
L 424.508744 208.273983 
L 424.487855 208.302006 
L 423.202268 210.111955 
L 422.698794 210.871469 
L 422.006758 211.921905 
L 420.900155 213.731855 
L 420.888844 213.75143 
L 419.853593 215.541805 
L 419.078894 217.001353 
L 418.892026 217.351754 
L 417.987803 219.161704 
L 417.268945 220.737375 
L 417.160876 220.971654 
L 416.382093 222.781604 
L 415.676288 224.591553 
L 415.458995 225.198685 
L 415.020032 226.401503 
L 414.420369 228.211453 
L 413.883281 230.021403 
L 413.649045 230.900122 
L 413.393942 231.831352 
L 412.951965 233.641302 
L 412.565625 235.451252 
L 412.23261 237.261202 
L 411.950903 239.071151 
L 411.839095 239.938712 
L 411.712847 240.881101 
L 411.519697 242.691051 
L 411.375807 244.501001 
L 411.280343 246.31095 
L 411.23275 248.1209 
L 411.23275 249.93085 
L 411.280343 251.7408 
L 411.375807 253.550749 
L 411.519697 255.360699 
L 411.712847 257.170649 
L 411.839095 258.113038 
L 411.950903 258.980599 
L 412.23261 260.790548 
L 412.565625 262.600498 
L 412.951965 264.410448 
L 413.393942 266.220398 
L 413.649045 267.151628 
L 413.883281 268.030347 
L 414.420369 269.840297 
L 415.020032 271.650247 
L 415.458995 272.853065 
L 415.676288 273.460197 
L 416.382093 275.270146 
L 417.160876 277.080096 
L 417.268945 277.314375 
L 417.987803 278.890046 
L 418.892026 280.699996 
L 419.078894 281.050397 
L 419.853593 282.509945 
L 420.888844 284.30032 
L 420.900155 284.319895 
L 422.006758 286.129845 
L 422.698794 287.180281 
L 423.202268 287.939795 
L 424.487855 289.749744 
L 424.508744 289.777767 
L 425.854893 291.559694 
L 426.318693 292.137722 
L 427.325318 293.369644 
L 428.128643 294.299951 
L 428.90609 295.179594 
L 429.938593 296.290636 
L 430.606919 296.989543 
L 431.748543 298.130646 
L 432.440942 298.799493 
L 433.558492 299.83644 
L 434.425585 300.609443 
L 435.368442 301.420786 
L 436.583722 302.419393 
L 437.178392 302.893342 
L 438.945219 304.229342 
L 438.988342 304.26112 
L 440.798291 305.541705 
L 441.547174 306.039292 
L 442.608241 306.731012 
L 444.418191 307.830271 
L 444.451037 307.849242 
L 446.228141 308.863225 
L 447.748001 309.659192 
L 448.03809 309.809961 
L 449.84804 310.695529 
L 451.588682 311.469141 
L 451.65799 311.49992 
L 453.46794 312.253536 
L 455.277889 312.9326 
L 456.294511 313.279091 
L 457.087839 313.551814 
L 458.897789 314.116575 
L 460.707739 314.615907 
L 462.517688 315.052643 
L 462.688585 315.089041 
L 464.327638 315.44545 
z
" clip-path="url(#pb928a0ca20)" style="fill: none; stroke: #7c3aed"/>
    <path d="M 475.187337 298.988094 
L 476.997286 299.207797 
L 478.807236 299.355208 
L 480.617186 299.431708 
L 482.427136 299.437928 
L 484.237085 299.373719 
L 486.047035 299.238104 
L 487.856985 299.029243 
L 489.318036 298.799493 
L 489.666935 298.747905 
L 491.476884 298.406506 
L 493.286834 297.985661 
L 495.096784 297.479571 
L 496.584527 296.989543 
L 496.906734 296.888056 
L 498.716683 296.232172 
L 500.526633 295.471156 
L 501.141212 295.179594 
L 502.336583 294.628615 
L 504.146533 293.679329 
L 504.676795 293.369644 
L 505.956482 292.634372 
L 507.61303 291.559694 
L 507.766432 291.460995 
L 509.576382 290.179754 
L 510.126532 289.749744 
L 511.386332 288.758596 
L 512.333357 287.939795 
L 513.196281 287.181374 
L 514.294995 286.129845 
L 515.006231 285.430521 
L 516.053301 284.319895 
L 516.816181 283.479109 
L 517.639105 282.509945 
L 518.626131 281.287624 
L 519.074415 280.699996 
L 520.375164 278.890046 
L 520.43608 278.800936 
L 521.562191 277.080096 
L 522.24603 275.942877 
L 522.636933 275.270146 
L 523.614023 273.460197 
L 524.05598 272.565409 
L 524.498819 271.650247 
L 525.298804 269.840297 
L 525.86593 268.403319 
L 526.012113 268.030347 
L 526.659769 266.220398 
L 527.226355 264.410448 
L 527.675879 262.754917 
L 527.718291 262.600498 
L 528.156537 260.790548 
L 528.525065 258.980599 
L 528.827005 257.170649 
L 529.065088 255.360699 
L 529.241586 253.550749 
L 529.358254 251.7408 
L 529.416285 249.93085 
L 529.416285 248.1209 
L 529.358254 246.31095 
L 529.241586 244.501001 
L 529.065088 242.691051 
L 528.827005 240.881101 
L 528.525065 239.071151 
L 528.156537 237.261202 
L 527.718291 235.451252 
L 527.675879 235.296833 
L 527.226355 233.641302 
L 526.659769 231.831352 
L 526.012113 230.021403 
L 525.86593 229.648431 
L 525.298804 228.211453 
L 524.498819 226.401503 
L 524.05598 225.486341 
L 523.614023 224.591553 
L 522.636933 222.781604 
L 522.24603 222.108873 
L 521.562191 220.971654 
L 520.43608 219.250814 
L 520.375164 219.161704 
L 519.074415 217.351754 
L 518.626131 216.764126 
L 517.639105 215.541805 
L 516.816181 214.572641 
L 516.053301 213.731855 
L 515.006231 212.621229 
L 514.294995 211.921905 
L 513.196281 210.870376 
L 512.333357 210.111955 
L 511.386332 209.293154 
L 510.126532 208.302006 
L 509.576382 207.871996 
L 507.766432 206.590755 
L 507.61303 206.492056 
L 505.956482 205.417378 
L 504.676795 204.682106 
L 504.146533 204.372421 
L 502.336583 203.423135 
L 501.141212 202.872156 
L 500.526633 202.580594 
L 498.716683 201.819578 
L 496.906734 201.163694 
L 496.584527 201.062207 
L 495.096784 200.572179 
L 493.286834 200.066089 
L 491.476884 199.645244 
L 489.666935 199.303845 
L 489.318036 199.252257 
L 487.856985 199.022507 
L 486.047035 198.813646 
L 484.237085 198.678031 
L 482.427136 198.613822 
L 480.617186 198.620042 
L 478.807236 198.696542 
L 476.997286 198.843953 
L 475.187337 199.063656 
L 474.01689 199.252257 
L 473.377387 199.351715 
L 471.567437 199.702517 
L 469.757487 200.130837 
L 467.947538 200.641028 
L 466.657116 201.062207 
L 466.137588 201.229217 
L 464.327638 201.885857 
L 462.517688 202.639386 
L 462.010012 202.872156 
L 460.707739 203.469867 
L 458.897789 204.400685 
L 458.394431 204.682106 
L 457.087839 205.422135 
L 455.382527 206.492056 
L 455.277889 206.559098 
L 453.46794 207.79805 
L 452.786684 208.302006 
L 451.65799 209.165113 
L 450.502817 210.111955 
L 449.84804 210.671501 
L 448.468043 211.921905 
L 448.03809 212.33165 
L 446.638066 213.731855 
L 446.228141 214.16694 
L 444.981734 215.541805 
L 444.418191 216.20754 
L 443.477594 217.351754 
L 442.608241 218.494869 
L 442.111464 219.161704 
L 440.871534 220.971654 
L 440.798291 221.086789 
L 439.728647 222.781604 
L 438.988342 224.084804 
L 438.700595 224.591553 
L 437.7593 226.401503 
L 437.178392 227.651973 
L 436.915602 228.211453 
L 436.14588 230.021403 
L 435.471741 231.831352 
L 435.368442 232.142463 
L 434.857611 233.641302 
L 434.322298 235.451252 
L 433.866091 237.261202 
L 433.558492 238.712953 
L 433.47953 239.071151 
L 433.147988 240.881101 
L 432.886741 242.691051 
L 432.693132 244.501001 
L 432.565168 246.31095 
L 432.501518 248.1209 
L 432.501518 249.93085 
L 432.565168 251.7408 
L 432.693132 253.550749 
L 432.886741 255.360699 
L 433.147988 257.170649 
L 433.47953 258.980599 
L 433.558492 259.338797 
L 433.866091 260.790548 
L 434.322298 262.600498 
L 434.857611 264.410448 
L 435.368442 265.909287 
L 435.471741 266.220398 
L 436.14588 268.030347 
L 436.915602 269.840297 
L 437.178392 270.399777 
L 437.7593 271.650247 
L 438.700595 273.460197 
L 438.988342 273.966946 
L 439.728647 275.270146 
L 440.798291 276.964961 
L 440.871534 277.080096 
L 442.111464 278.890046 
L 442.608241 279.556881 
L 443.477594 280.699996 
L 444.418191 281.84421 
L 444.981734 282.509945 
L 446.228141 283.88481 
L 446.638066 284.319895 
L 448.03809 285.7201 
L 448.468043 286.129845 
L 449.84804 287.380249 
L 450.502817 287.939795 
L 451.65799 288.886637 
L 452.786684 289.749744 
L 453.46794 290.2537 
L 455.277889 291.492652 
L 455.382527 291.559694 
L 457.087839 292.629615 
L 458.394431 293.369644 
L 458.897789 293.651065 
L 460.707739 294.581883 
L 462.010012 295.179594 
L 462.517688 295.412364 
L 464.327638 296.165893 
L 466.137588 296.822533 
L 466.657116 296.989543 
L 467.947538 297.410722 
L 469.757487 297.920913 
L 471.567437 298.349233 
L 473.377387 298.700035 
L 474.01689 298.799493 
L 475.187337 298.988094 
z
" clip-path="url(#pb928a0ca20)" style="fill: none; stroke: #7c3aed"/>
    <path d="M 476.997286 288.282394 
L 478.807236 288.581264 
L 480.617186 288.789031 
L 482.427136 288.908851 
L 484.237085 288.942532 
L 486.047035 288.890476 
L 487.856985 288.751613 
L 489.666935 288.523342 
L 491.476884 288.201481 
L 492.608018 287.939795 
L 493.286834 287.791451 
L 495.096784 287.299525 
L 496.906734 286.697397 
L 498.336041 286.129845 
L 498.716683 285.983871 
L 500.526633 285.178984 
L 502.168499 284.319895 
L 502.336583 284.233396 
L 504.146533 283.181177 
L 505.156012 282.509945 
L 505.956482 281.975704 
L 507.644558 280.699996 
L 507.766432 280.606261 
L 509.576382 279.065822 
L 509.764677 278.890046 
L 511.386332 277.313981 
L 511.607829 277.080096 
L 513.196281 275.305805 
L 513.226082 275.270146 
L 514.659059 273.460197 
L 515.006231 272.983729 
L 515.931092 271.650247 
L 516.816181 270.235097 
L 517.054512 269.840297 
L 518.056347 268.030347 
L 518.626131 266.863602 
L 518.935449 266.220398 
L 519.713551 264.410448 
L 520.377556 262.600498 
L 520.43608 262.417961 
L 520.964033 260.790548 
L 521.45455 258.980599 
L 521.852534 257.170649 
L 522.163661 255.360699 
L 522.24603 254.717332 
L 522.402044 253.550749 
L 522.562592 251.7408 
L 522.642324 249.93085 
L 522.642324 248.1209 
L 522.562592 246.31095 
L 522.402044 244.501001 
L 522.24603 243.334418 
L 522.163661 242.691051 
L 521.852534 240.881101 
L 521.45455 239.071151 
L 520.964033 237.261202 
L 520.43608 235.633789 
L 520.377556 235.451252 
L 519.713551 233.641302 
L 518.935449 231.831352 
L 518.626131 231.188148 
L 518.056347 230.021403 
L 517.054512 228.211453 
L 516.816181 227.816653 
L 515.931092 226.401503 
L 515.006231 225.068021 
L 514.659059 224.591553 
L 513.226082 222.781604 
L 513.196281 222.745945 
L 511.607829 220.971654 
L 511.386332 220.737769 
L 509.764677 219.161704 
L 509.576382 218.985928 
L 507.766432 217.445489 
L 507.644558 217.351754 
L 505.956482 216.076046 
L 505.156012 215.541805 
L 504.146533 214.870573 
L 502.336583 213.818354 
L 502.168499 213.731855 
L 500.526633 212.872766 
L 498.716683 212.067879 
L 498.336041 211.921905 
L 496.906734 211.354353 
L 495.096784 210.752225 
L 493.286834 210.260299 
L 492.608018 210.111955 
L 491.476884 209.850269 
L 489.666935 209.528408 
L 487.856985 209.300137 
L 486.047035 209.161274 
L 484.237085 209.109218 
L 482.427136 209.142899 
L 480.617186 209.262719 
L 478.807236 209.470486 
L 476.997286 209.769356 
L 475.418745 210.111955 
L 475.187337 210.160468 
L 473.377387 210.625963 
L 471.567437 211.195809 
L 469.757487 211.878573 
L 469.655443 211.921905 
L 467.947538 212.644416 
L 466.137588 213.539948 
L 465.787298 213.731855 
L 464.327638 214.543021 
L 462.74665 215.541805 
L 462.517688 215.690345 
L 460.707739 216.973488 
L 460.218973 217.351754 
L 458.897789 218.421753 
L 458.054031 219.161704 
L 457.087839 220.060321 
L 456.168602 220.971654 
L 455.277889 221.9212 
L 454.509439 222.781604 
L 453.46794 224.053459 
L 453.042538 224.591553 
L 451.743444 226.401503 
L 451.65799 226.532041 
L 450.575419 228.211453 
L 449.84804 229.495717 
L 449.551361 230.021403 
L 448.637119 231.831352 
L 448.03809 233.204298 
L 447.844729 233.641302 
L 447.139691 235.451252 
L 446.547 237.261202 
L 446.228141 238.426 
L 446.044951 239.071151 
L 445.620388 240.881101 
L 445.288567 242.691051 
L 445.044276 244.501001 
L 444.883595 246.31095 
L 444.80391 248.1209 
L 444.80391 249.93085 
L 444.883595 251.7408 
L 445.044276 253.550749 
L 445.288567 255.360699 
L 445.620388 257.170649 
L 446.044951 258.980599 
L 446.228141 259.62575 
L 446.547 260.790548 
L 447.139691 262.600498 
L 447.844729 264.410448 
L 448.03809 264.847452 
L 448.637119 266.220398 
L 449.551361 268.030347 
L 449.84804 268.556033 
L 450.575419 269.840297 
L 451.65799 271.519709 
L 451.743444 271.650247 
L 453.042538 273.460197 
L 453.46794 273.998291 
L 454.509439 275.270146 
L 455.277889 276.13055 
L 456.168602 277.080096 
L 457.087839 277.991429 
L 458.054031 278.890046 
L 458.897789 279.629997 
L 460.218973 280.699996 
L 460.707739 281.078262 
L 462.517688 282.361405 
L 462.74665 282.509945 
L 464.327638 283.508729 
L 465.787298 284.319895 
L 466.137588 284.511802 
L 467.947538 285.407334 
L 469.655443 286.129845 
L 469.757487 286.173177 
L 471.567437 286.855941 
L 473.377387 287.425787 
L 475.187337 287.891282 
L 475.418745 287.939795 
L 476.997286 288.282394 
z
" clip-path="url(#pb928a0ca20)" style="fill: none; stroke: #7c3aed"/>
    <path d="M 478.807236 280.962338 
L 480.617186 281.290377 
L 482.427136 281.5073 
L 484.237085 281.617718 
L 486.047035 281.623977 
L 487.856985 281.526061 
L 489.666935 281.321498 
L 491.476884 281.005301 
L 492.754133 280.699996 
L 493.286834 280.579587 
L 495.096784 280.055296 
L 496.906734 279.395549 
L 498.052843 278.890046 
L 498.716683 278.603971 
L 500.526633 277.680528 
L 501.529334 277.080096 
L 502.336583 276.594902 
L 504.146533 275.328131 
L 504.220969 275.270146 
L 505.956482 273.873085 
L 506.413606 273.460197 
L 507.766432 272.171232 
L 508.263894 271.650247 
L 509.576382 270.167845 
L 509.845618 269.840297 
L 511.208462 268.030347 
L 511.386332 267.769031 
L 512.392701 266.220398 
L 513.196281 264.793378 
L 513.406096 264.410448 
L 514.286463 262.600498 
L 515.006231 260.821636 
L 515.018805 260.790548 
L 515.652578 258.980599 
L 516.161883 257.170649 
L 516.556596 255.360699 
L 516.816181 253.735711 
L 516.847047 253.550749 
L 517.049313 251.7408 
L 517.149488 249.93085 
L 517.149488 248.1209 
L 517.049313 246.31095 
L 516.847047 244.501001 
L 516.816181 244.316039 
L 516.556596 242.691051 
L 516.161883 240.881101 
L 515.652578 239.071151 
L 515.018805 237.261202 
L 515.006231 237.230114 
L 514.286463 235.451252 
L 513.406096 233.641302 
L 513.196281 233.258372 
L 512.392701 231.831352 
L 511.386332 230.282719 
L 511.208462 230.021403 
L 509.845618 228.211453 
L 509.576382 227.883905 
L 508.263894 226.401503 
L 507.766432 225.880518 
L 506.413606 224.591553 
L 505.956482 224.178665 
L 504.220969 222.781604 
L 504.146533 222.723619 
L 502.336583 221.456848 
L 501.529334 220.971654 
L 500.526633 220.371222 
L 498.716683 219.447779 
L 498.052843 219.161704 
L 496.906734 218.656201 
L 495.096784 217.996454 
L 493.286834 217.472163 
L 492.754133 217.351754 
L 491.476884 217.046449 
L 489.666935 216.730252 
L 487.856985 216.525689 
L 486.047035 216.427773 
L 484.237085 216.434032 
L 482.427136 216.54445 
L 480.617186 216.761373 
L 478.807236 217.089412 
L 477.726536 217.351754 
L 476.997286 217.522921 
L 475.187337 218.059379 
L 473.377387 218.72919 
L 472.393553 219.161704 
L 471.567437 219.524977 
L 469.757487 220.456831 
L 468.888178 220.971654 
L 467.947538 221.543616 
L 466.175402 222.781604 
L 466.137588 222.809228 
L 464.327638 224.262046 
L 463.954391 224.591553 
L 462.517688 225.954332 
L 462.080321 226.401503 
L 460.707739 227.939493 
L 460.477915 228.211453 
L 459.093962 230.021403 
L 458.897789 230.309523 
L 457.888493 231.831352 
L 457.087839 233.236903 
L 456.85953 233.641302 
L 455.962274 235.451252 
L 455.277889 237.115955 
L 455.217216 237.261202 
L 454.569932 239.071151 
L 454.051964 240.881101 
L 453.65168 242.691051 
L 453.46794 243.820559 
L 453.350897 244.501001 
L 453.144261 246.31095 
L 453.042034 248.1209 
L 453.042034 249.93085 
L 453.144261 251.7408 
L 453.350897 253.550749 
L 453.46794 254.231191 
L 453.65168 255.360699 
L 454.051964 257.170649 
L 454.569932 258.980599 
L 455.217216 260.790548 
L 455.277889 260.935795 
L 455.962274 262.600498 
L 456.85953 264.410448 
L 457.087839 264.814847 
L 457.888493 266.220398 
L 458.897789 267.742227 
L 459.093962 268.030347 
L 460.477915 269.840297 
L 460.707739 270.112257 
L 462.080321 271.650247 
L 462.517688 272.097418 
L 463.954391 273.460197 
L 464.327638 273.789704 
L 466.137588 275.242522 
L 466.175402 275.270146 
L 467.947538 276.508134 
L 468.888178 277.080096 
L 469.757487 277.594919 
L 471.567437 278.526773 
L 472.393553 278.890046 
L 473.377387 279.32256 
L 475.187337 279.992371 
L 476.997286 280.528829 
L 477.726536 280.699996 
L 478.807236 280.962338 
z
" clip-path="url(#pb928a0ca20)" style="fill: none; stroke: #7c3aed"/>
   </g>
   <g id="text_4">
    <text style="font-size: 13px; font-family: 'DejaVu Sans', 'Bitstream Vera Sans', 'Computer Modern Sans Serif', 'Lucida Grande', 'Verdana', 'Geneva', 'Lucid', 'Arial', 'Helvetica', 'Avant Garde', sans-serif; text-anchor: middle" x="559.35" y="62.935875" transform="rotate(-0 559.35 62.935875)">Equipotentials</text>
   </g>
  </g>
  <g id="text_5">
   <text style="font-weight: 700; font-size: 16px; font-family: 'DejaVu Sans', 'Bitstream Vera Sans', 'Computer Modern Sans Serif', 'Lucida Grande', 'Verdana', 'Geneva', 'Lucid', 'Arial', 'Helvetica', 'Avant Garde', sans-serif; text-anchor: middle" x="373.32" y="19.3575" transform="rotate(-0 373.32 19.3575)">Electric Fields</text>
  </g>
 </g>
 <defs>
  <clipPath id="p5ad8d87ea0">
   <rect x="7.2" y="68.935875" width="360.18" height="360.18"/>
  </clipPath>
  <clipPath id="pb928a0ca20">
   <rect x="379.26" y="68.935875" width="360.18" height="360.18"/>
  </clipPath>
 </defs>
</svg>
