<?xml version="1.0" encoding="utf-8" standalone="no"?>
<!DOCTYPE svg PUBLIC "-//W3C//DTD SVG 1.1//EN"
  "http://www.w3.org/Graphics/SVG/1.1/DTD/svg11.dtd">
<svg xmlns:xlink="http://www.w3.org/1999/xlink" width="747.256406pt" height="439.992pt" viewBox="0 0 747.256406 439.992" xmlns="http://www.w3.org/2000/svg" version="1.1">
 <metadata>
  <rdf:RDF xmlns:dc="http://purl.org/dc/elements/1.1/" xmlns:cc="http://creativecommons.org/ns#" xmlns:rdf="http://www.w3.org/1999/02/22-rdf-syntax-ns#">
   <cc:Work>
    <dc:type rdf:resource="http://purl.org/dc/dcmitype/StillImage"/>
    <dc:date>2026-07-03T10:42:56.943713</dc:date>
    <dc:format>image/svg+xml</dc:format>
    <dc:creator>
     <cc:Agent>
      <dc:title>Matplotlib v3.11.0, https://matplotlib.org/</dc:title>
     </cc:Agent>
    </dc:creator>
   </cc:Work>
  </rdf:RDF>
 </metadata>
 <defs>
  <style type="text/css">*{stroke-linejoin: round; stroke-linecap: butt}</style>
 </defs>
 <g id="figure_1">
  <g id="patch_1">
   <path d="M 0 439.992 
L 747.256406 439.992 
L 747.256406 0 
L 0 0 
z
" style="fill: #ffffff"/>
  </g>
  <g id="axes_1">
   <g id="patch_2">
    <path d="M 30.416406 414.792 
L 350.580696 414.792 
L 350.580696 81.45975 
L 30.416406 81.45975 
z
" style="fill: #ffffff"/>
   </g>
   <g id="PathCollection_1">
    <defs>
     <path id="mcde39c1255" d="M 0 3 
C 0.795609 3 1.55874 2.683901 2.12132 2.12132 
C 2.683901 1.55874 3 0.795609 3 0 
C 3 -0.795609 2.683901 -1.55874 2.12132 -2.12132 
C 1.55874 -2.683901 0.795609 -3 0 -3 
C -0.795609 -3 -1.55874 -2.683901 -2.12132 -2.12132 
C -2.683901 -1.55874 -3 -0.795609 -3 0 
C -3 0.795609 -2.683901 1.55874 -2.12132 2.12132 
C -1.55874 2.683901 -0.795609 3 0 3 
z
" style="stroke: #dc2626"/>
    </defs>
    <g clip-path="url(#p9da45c559d)">
     <use xlink:href="#mcde39c1255" x="260.352578" y="295.336111" style="fill: #dc2626; stroke: #dc2626"/>
    </g>
   </g>
   <g id="matplotlib.axis_1">
    <g id="xtick_1">
     <g id="line2d_1">
      <path d="M 74.075173 414.792 
L 74.075173 81.45975 
" clip-path="url(#p9da45c559d)" style="fill: none; stroke: #b0b0b0; stroke-opacity: 0.25; stroke-width: 0.8; stroke-linecap: square"/>
     </g>
     <g id="line2d_2">
      <defs>
       <path id="mb61b702c30" d="M 0 0 
L 0 3.5 
" style="stroke: #000000; stroke-width: 0.8"/>
      </defs>
      <g>
       <use xlink:href="#mb61b702c30" x="74.075173" y="414.792" style="stroke: #000000; stroke-width: 0.8"/>
      </g>
     </g>
     <g id="text_1">
      <text style="font-size: 11px; font-family: 'DejaVu Sans', 'Bitstream Vera Sans', 'Computer Modern Sans Serif', 'Lucida Grande', 'Verdana', 'Geneva', 'Lucid', 'Arial', 'Helvetica', 'Avant Garde', sans-serif; text-anchor: middle" x="74.075173" y="430.149422" transform="rotate(-0 74.075173 430.149422)">−2</text>
     </g>
    </g>
    <g id="xtick_2">
     <g id="line2d_3">
      <path d="M 132.286862 414.792 
L 132.286862 81.45975 
" clip-path="url(#p9da45c559d)" style="fill: none; stroke: #b0b0b0; stroke-opacity: 0.25; stroke-width: 0.8; stroke-linecap: square"/>
     </g>
     <g id="line2d_4">
      <g>
       <use xlink:href="#mb61b702c30" x="132.286862" y="414.792" style="stroke: #000000; stroke-width: 0.8"/>
      </g>
     </g>
     <g id="text_2">
      <text style="font-size: 11px; font-family: 'DejaVu Sans', 'Bitstream Vera Sans', 'Computer Modern Sans Serif', 'Lucida Grande', 'Verdana', 'Geneva', 'Lucid', 'Arial', 'Helvetica', 'Avant Garde', sans-serif; text-anchor: middle" x="132.286862" y="430.149422" transform="rotate(-0 132.286862 430.149422)">−1</text>
     </g>
    </g>
    <g id="xtick_3">
     <g id="line2d_5">
      <path d="M 190.498551 414.792 
L 190.498551 81.45975 
" clip-path="url(#p9da45c559d)" style="fill: none; stroke: #b0b0b0; stroke-opacity: 0.25; stroke-width: 0.8; stroke-linecap: square"/>
     </g>
     <g id="line2d_6">
      <g>
       <use xlink:href="#mb61b702c30" x="190.498551" y="414.792" style="stroke: #000000; stroke-width: 0.8"/>
      </g>
     </g>
     <g id="text_3">
      <text style="font-size: 11px; font-family: 'DejaVu Sans', 'Bitstream Vera Sans', 'Computer Modern Sans Serif', 'Lucida Grande', 'Verdana', 'Geneva', 'Lucid', 'Arial', 'Helvetica', 'Avant Garde', sans-serif; text-anchor: middle" x="190.498551" y="430.149422" transform="rotate(-0 190.498551 430.149422)">0</text>
     </g>
    </g>
    <g id="xtick_4">
     <g id="line2d_7">
      <path d="M 248.71024 414.792 
L 248.71024 81.45975 
" clip-path="url(#p9da45c559d)" style="fill: none; stroke: #b0b0b0; stroke-opacity: 0.25; stroke-width: 0.8; stroke-linecap: square"/>
     </g>
     <g id="line2d_8">
      <g>
       <use xlink:href="#mb61b702c30" x="248.71024" y="414.792" style="stroke: #000000; stroke-width: 0.8"/>
      </g>
     </g>
     <g id="text_4">
      <text style="font-size: 11px; font-family: 'DejaVu Sans', 'Bitstream Vera Sans', 'Computer Modern Sans Serif', 'Lucida Grande', 'Verdana', 'Geneva', 'Lucid', 'Arial', 'Helvetica', 'Avant Garde', sans-serif; text-anchor: middle" x="248.71024" y="430.149422" transform="rotate(-0 248.71024 430.149422)">1</text>
     </g>
    </g>
    <g id="xtick_5">
     <g id="line2d_9">
      <path d="M 306.921929 414.792 
L 306.921929 81.45975 
" clip-path="url(#p9da45c559d)" style="fill: none; stroke: #b0b0b0; stroke-opacity: 0.25; stroke-width: 0.8; stroke-linecap: square"/>
     </g>
     <g id="line2d_10">
      <g>
       <use xlink:href="#mb61b702c30" x="306.921929" y="414.792" style="stroke: #000000; stroke-width: 0.8"/>
      </g>
     </g>
     <g id="text_5">
      <text style="font-size: 11px; font-family: 'DejaVu Sans', 'Bitstream Vera Sans', 'Computer Modern Sans Serif', 'Lucida Grande', 'Verdana', 'Geneva', 'Lucid', 'Arial', 'Helvetica', 'Avant Garde', sans-serif; text-anchor: middle" x="306.921929" y="430.149422" transform="rotate(-0 306.921929 430.149422)">2</text>
     </g>
    </g>
   </g>
   <g id="matplotlib.axis_2">
    <g id="ytick_1">
     <g id="line2d_11">
      <path d="M 30.416406 386.653563 
L 350.580696 386.653563 
" clip-path="url(#p9da45c559d)" style="fill: none; stroke: #b0b0b0; stroke-opacity: 0.25; stroke-width: 0.8; stroke-linecap: square"/>
     </g>
     <g id="line2d_12">
      <defs>
       <path id="m15be737257" d="M 0 0 
L -3.5 0 
" style="stroke: #000000; stroke-width: 0.8"/>
      </defs>
      <g>
       <use xlink:href="#m15be737257" x="30.416406" y="386.653563" style="stroke: #000000; stroke-width: 0.8"/>
      </g>
     </g>
     <g id="text_6">
      <text style="font-size: 11px; font-family: 'DejaVu Sans', 'Bitstream Vera Sans', 'Computer Modern Sans Serif', 'Lucida Grande', 'Verdana', 'Geneva', 'Lucid', 'Arial', 'Helvetica', 'Avant Garde', sans-serif; text-anchor: end" x="23.416406" y="390.832274" transform="rotate(-0 23.416406 390.832274)">−1</text>
     </g>
    </g>
    <g id="ytick_2">
     <g id="line2d_13">
      <path d="M 30.416406 317.389719 
L 350.580696 317.389719 
" clip-path="url(#p9da45c559d)" style="fill: none; stroke: #b0b0b0; stroke-opacity: 0.25; stroke-width: 0.8; stroke-linecap: square"/>
     </g>
     <g id="line2d_14">
      <g>
       <use xlink:href="#m15be737257" x="30.416406" y="317.389719" style="stroke: #000000; stroke-width: 0.8"/>
      </g>
     </g>
     <g id="text_7">
      <text style="font-size: 11px; font-family: 'DejaVu Sans', 'Bitstream Vera Sans', 'Computer Modern Sans Serif', 'Lucida Grande', 'Verdana', 'Geneva', 'Lucid', 'Arial', 'Helvetica', 'Avant Garde', sans-serif; text-anchor: end" x="23.416406" y="321.56843" transform="rotate(-0 23.416406 321.56843)">0</text>
     </g>
    </g>
    <g id="ytick_3">
     <g id="line2d_15">
      <path d="M 30.416406 248.125875 
L 350.580696 248.125875 
" clip-path="url(#p9da45c559d)" style="fill: none; stroke: #b0b0b0; stroke-opacity: 0.25; stroke-width: 0.8; stroke-linecap: square"/>
     </g>
     <g id="line2d_16">
      <g>
       <use xlink:href="#m15be737257" x="30.416406" y="248.125875" style="stroke: #000000; stroke-width: 0.8"/>
      </g>
     </g>
     <g id="text_8">
      <text style="font-size: 11px; font-family: 'DejaVu Sans', 'Bitstream Vera Sans', 'Computer Modern Sans Serif', 'Lucida Grande', 'Verdana', 'Geneva', 'Lucid', 'Arial', 'Helvetica', 'Avant Garde', sans-serif; text-anchor: end" x="23.416406" y="252.304586" transform="rotate(-0 23.416406 252.304586)">1</text>
     </g>
    </g>
    <g id="ytick_4">
     <g id="line2d_17">
      <path d="M 30.416406 178.862031 
L 350.580696 178.862031 
" clip-path="url(#p9da45c559d)" style="fill: none; stroke: #b0b0b0; stroke-opacity: 0.25; stroke-width: 0.8; stroke-linecap: square"/>
     </g>
     <g id="line2d_18">
      <g>
       <use xlink:href="#m15be737257" x="30.416406" y="178.862031" style="stroke: #000000; stroke-width: 0.8"/>
      </g>
     </g>
     <g id="text_9">
      <text style="font-size: 11px; font-family: 'DejaVu Sans', 'Bitstream Vera Sans', 'Computer Modern Sans Serif', 'Lucida Grande', 'Verdana', 'Geneva', 'Lucid', 'Arial', 'Helvetica', 'Avant Garde', sans-serif; text-anchor: end" x="23.416406" y="183.040742" transform="rotate(-0 23.416406 183.040742)">2</text>
     </g>
    </g>
    <g id="ytick_5">
     <g id="line2d_19">
      <path d="M 30.416406 109.598187 
L 350.580696 109.598187 
" clip-path="url(#p9da45c559d)" style="fill: none; stroke: #b0b0b0; stroke-opacity: 0.25; stroke-width: 0.8; stroke-linecap: square"/>
     </g>
     <g id="line2d_20">
      <g>
       <use xlink:href="#m15be737257" x="30.416406" y="109.598187" style="stroke: #000000; stroke-width: 0.8"/>
      </g>
     </g>
     <g id="text_10">
      <text style="font-size: 11px; font-family: 'DejaVu Sans', 'Bitstream Vera Sans', 'Computer Modern Sans Serif', 'Lucida Grande', 'Verdana', 'Geneva', 'Lucid', 'Arial', 'Helvetica', 'Avant Garde', sans-serif; text-anchor: end" x="23.416406" y="113.776898" transform="rotate(-0 23.416406 113.776898)">3</text>
     </g>
    </g>
   </g>
   <g id="line2d_21">
    <path d="M 44.969328 399.640534 
L 48.469029 380.940072 
L 51.96873 363.339093 
L 55.468431 346.810507 
L 58.968131 331.32722 
L 62.467832 316.862142 
L 65.967533 303.38818 
L 69.467234 290.878241 
L 72.966934 279.305235 
L 75.883352 270.35723 
L 78.799769 262.025379 
L 81.716186 254.294006 
L 84.632604 247.147431 
L 87.549021 240.569976 
L 90.465438 234.545963 
L 93.381855 229.059715 
L 96.298273 224.095552 
L 99.21469 219.637796 
L 101.547824 216.425669 
L 103.880958 213.519581 
L 106.214091 210.911506 
L 108.547225 208.593415 
L 110.880359 206.557282 
L 113.213493 204.795079 
L 115.546627 203.298779 
L 117.879761 202.060355 
L 120.212894 201.07178 
L 122.546028 200.325025 
L 124.879162 199.812065 
L 127.212296 199.524872 
L 129.54543 199.455418 
L 131.878564 199.595676 
L 134.211697 199.937619 
L 136.544831 200.47322 
L 139.461249 201.402824 
L 142.377666 202.606796 
L 145.294083 204.06946 
L 148.2105 205.775136 
L 151.126918 207.708148 
L 154.626618 210.305767 
L 158.126319 213.181081 
L 162.209303 216.850442 
L 166.292288 220.817878 
L 170.958555 225.661894 
L 176.208106 231.429648 
L 183.207508 239.491373 
L 207.122129 267.421713 
L 212.371681 273.049492 
L 217.037948 277.734969 
L 221.120932 281.537344 
L 225.203917 285.017062 
L 228.703617 287.710256 
L 232.203318 290.107696 
L 235.119735 291.860094 
L 238.036153 293.372615 
L 240.95257 294.62958 
L 243.868987 295.615311 
L 246.202121 296.198072 
L 248.535255 296.589182 
L 250.868389 296.780614 
L 253.201523 296.764341 
L 255.534656 296.532335 
L 257.86779 296.076569 
L 260.200924 295.389016 
L 262.534058 294.461649 
L 264.867192 293.286439 
L 267.200326 291.855361 
L 269.533459 290.160386 
L 271.866593 288.193488 
L 274.199727 285.94664 
L 276.532861 283.411813 
L 278.865995 280.580981 
L 281.199129 277.446116 
L 283.532262 273.999192 
L 286.44868 269.239473 
L 289.365097 263.96394 
L 292.281514 258.156914 
L 295.197931 251.802718 
L 298.114349 244.885672 
L 301.030766 237.390099 
L 303.947183 229.300321 
L 306.863601 220.600659 
L 309.780018 211.275435 
L 312.696435 201.308971 
L 316.196136 188.480701 
L 319.695837 174.679377 
L 323.195537 159.877906 
L 326.695238 144.049197 
L 330.194939 127.166157 
L 333.69464 109.201694 
L 336.027773 96.611216 
L 336.027773 96.611216 
" clip-path="url(#p9da45c559d)" style="fill: none; stroke: #2563eb; stroke-width: 2.4; stroke-linecap: square"/>
   </g>
   <g id="line2d_22">
    <path d="M 44.969328 371.193873 
L 336.027773 268.683384 
L 336.027773 268.683384 
" clip-path="url(#p9da45c559d)" style="fill: none; stroke: #dc2626; stroke-width: 2; stroke-linecap: square"/>
   </g>
   <g id="patch_3">
    <path d="M 30.416406 414.792 
L 30.416406 81.45975 
" style="fill: none; stroke: #000000; stroke-width: 0.8; stroke-linejoin: miter; stroke-linecap: square"/>
   </g>
   <g id="patch_4">
    <path d="M 30.416406 414.792 
L 350.580696 414.792 
" style="fill: none; stroke: #000000; stroke-width: 0.8; stroke-linejoin: miter; stroke-linecap: square"/>
   </g>
   <g id="text_11">
    <text style="font-size: 11px; font-family: 'DejaVu Sans', 'Bitstream Vera Sans', 'Computer Modern Sans Serif', 'Lucida Grande', 'Verdana', 'Geneva', 'Lucid', 'Arial', 'Helvetica', 'Avant Garde', sans-serif; text-anchor: start; fill: #dc2626" x="266.173747" y="281.483342" transform="rotate(-0 266.173747 281.483342)">tangent gradient</text>
   </g>
   <g id="text_12">
    <text style="font-size: 13px; font-family: 'DejaVu Sans', 'Bitstream Vera Sans', 'Computer Modern Sans Serif', 'Lucida Grande', 'Verdana', 'Geneva', 'Lucid', 'Arial', 'Helvetica', 'Avant Garde', sans-serif; text-anchor: middle" x="190.498551" y="75.45975" transform="rotate(-0 190.498551 75.45975)">Local gradient</text>
   </g>
  </g>
  <g id="axes_2">
   <g id="patch_5">
    <path d="M 419.892117 414.792 
L 740.056406 414.792 
L 740.056406 81.45975 
L 419.892117 81.45975 
z
" style="fill: #ffffff"/>
   </g>
   <g id="PathCollection_2">
    <defs>
     <path id="m7e23d0882c" d="M 0 3 
C 0.795609 3 1.55874 2.683901 2.12132 2.12132 
C 2.683901 1.55874 3 0.795609 3 0 
C 3 -0.795609 2.683901 -1.55874 2.12132 -2.12132 
C 1.55874 -2.683901 0.795609 -3 0 -3 
C -0.795609 -3 -1.55874 -2.683901 -2.12132 -2.12132 
C -2.683901 -1.55874 -3 -0.795609 -3 0 
C -3 0.795609 -2.683901 1.55874 -2.12132 2.12132 
C -1.55874 2.683901 -0.795609 3 0 3 
z
" style="stroke: #0f766e"/>
    </defs>
    <g clip-path="url(#p5c294e41ce)">
     <use xlink:href="#m7e23d0882c" x="518.613754" y="345.769656" style="fill: #0f766e; stroke: #0f766e"/>
     <use xlink:href="#m7e23d0882c" x="641.334769" y="345.769656" style="fill: #0f766e; stroke: #0f766e"/>
    </g>
   </g>
   <g id="matplotlib.axis_3">
    <g id="xtick_6">
     <g id="line2d_23">
      <path d="M 463.550884 414.792 
L 463.550884 81.45975 
" clip-path="url(#p5c294e41ce)" style="fill: none; stroke: #b0b0b0; stroke-opacity: 0.25; stroke-width: 0.8; stroke-linecap: square"/>
     </g>
     <g id="line2d_24">
      <g>
       <use xlink:href="#mb61b702c30" x="463.550884" y="414.792" style="stroke: #000000; stroke-width: 0.8"/>
      </g>
     </g>
     <g id="text_13">
      <text style="font-size: 11px; font-family: 'DejaVu Sans', 'Bitstream Vera Sans', 'Computer Modern Sans Serif', 'Lucida Grande', 'Verdana', 'Geneva', 'Lucid', 'Arial', 'Helvetica', 'Avant Garde', sans-serif; text-anchor: middle" x="463.550884" y="430.149422" transform="rotate(-0 463.550884 430.149422)">−2</text>
     </g>
    </g>
    <g id="xtick_7">
     <g id="line2d_25">
      <path d="M 521.762573 414.792 
L 521.762573 81.45975 
" clip-path="url(#p5c294e41ce)" style="fill: none; stroke: #b0b0b0; stroke-opacity: 0.25; stroke-width: 0.8; stroke-linecap: square"/>
     </g>
     <g id="line2d_26">
      <g>
       <use xlink:href="#mb61b702c30" x="521.762573" y="414.792" style="stroke: #000000; stroke-width: 0.8"/>
      </g>
     </g>
     <g id="text_14">
      <text style="font-size: 11px; font-family: 'DejaVu Sans', 'Bitstream Vera Sans', 'Computer Modern Sans Serif', 'Lucida Grande', 'Verdana', 'Geneva', 'Lucid', 'Arial', 'Helvetica', 'Avant Garde', sans-serif; text-anchor: middle" x="521.762573" y="430.149422" transform="rotate(-0 521.762573 430.149422)">−1</text>
     </g>
    </g>
    <g id="xtick_8">
     <g id="line2d_27">
      <path d="M 579.974262 414.792 
L 579.974262 81.45975 
" clip-path="url(#p5c294e41ce)" style="fill: none; stroke: #b0b0b0; stroke-opacity: 0.25; stroke-width: 0.8; stroke-linecap: square"/>
     </g>
     <g id="line2d_28">
      <g>
       <use xlink:href="#mb61b702c30" x="579.974262" y="414.792" style="stroke: #000000; stroke-width: 0.8"/>
      </g>
     </g>
     <g id="text_15">
      <text style="font-size: 11px; font-family: 'DejaVu Sans', 'Bitstream Vera Sans', 'Computer Modern Sans Serif', 'Lucida Grande', 'Verdana', 'Geneva', 'Lucid', 'Arial', 'Helvetica', 'Avant Garde', sans-serif; text-anchor: middle" x="579.974262" y="430.149422" transform="rotate(-0 579.974262 430.149422)">0</text>
     </g>
    </g>
    <g id="xtick_9">
     <g id="line2d_29">
      <path d="M 638.185951 414.792 
L 638.185951 81.45975 
" clip-path="url(#p5c294e41ce)" style="fill: none; stroke: #b0b0b0; stroke-opacity: 0.25; stroke-width: 0.8; stroke-linecap: square"/>
     </g>
     <g id="line2d_30">
      <g>
       <use xlink:href="#mb61b702c30" x="638.185951" y="414.792" style="stroke: #000000; stroke-width: 0.8"/>
      </g>
     </g>
     <g id="text_16">
      <text style="font-size: 11px; font-family: 'DejaVu Sans', 'Bitstream Vera Sans', 'Computer Modern Sans Serif', 'Lucida Grande', 'Verdana', 'Geneva', 'Lucid', 'Arial', 'Helvetica', 'Avant Garde', sans-serif; text-anchor: middle" x="638.185951" y="430.149422" transform="rotate(-0 638.185951 430.149422)">1</text>
     </g>
    </g>
    <g id="xtick_10">
     <g id="line2d_31">
      <path d="M 696.39764 414.792 
L 696.39764 81.45975 
" clip-path="url(#p5c294e41ce)" style="fill: none; stroke: #b0b0b0; stroke-opacity: 0.25; stroke-width: 0.8; stroke-linecap: square"/>
     </g>
     <g id="line2d_32">
      <g>
       <use xlink:href="#mb61b702c30" x="696.39764" y="414.792" style="stroke: #000000; stroke-width: 0.8"/>
      </g>
     </g>
     <g id="text_17">
      <text style="font-size: 11px; font-family: 'DejaVu Sans', 'Bitstream Vera Sans', 'Computer Modern Sans Serif', 'Lucida Grande', 'Verdana', 'Geneva', 'Lucid', 'Arial', 'Helvetica', 'Avant Garde', sans-serif; text-anchor: middle" x="696.39764" y="430.149422" transform="rotate(-0 696.39764 430.149422)">2</text>
     </g>
    </g>
   </g>
   <g id="matplotlib.axis_4">
    <g id="ytick_6">
     <g id="line2d_33">
      <path d="M 419.892117 399.641751 
L 740.056406 399.641751 
" clip-path="url(#p5c294e41ce)" style="fill: none; stroke: #b0b0b0; stroke-opacity: 0.25; stroke-width: 0.8; stroke-linecap: square"/>
     </g>
     <g id="line2d_34">
      <g>
       <use xlink:href="#m15be737257" x="419.892117" y="399.641751" style="stroke: #000000; stroke-width: 0.8"/>
      </g>
     </g>
     <g id="text_18">
      <text style="font-size: 11px; font-family: 'DejaVu Sans', 'Bitstream Vera Sans', 'Computer Modern Sans Serif', 'Lucida Grande', 'Verdana', 'Geneva', 'Lucid', 'Arial', 'Helvetica', 'Avant Garde', sans-serif; text-anchor: end" x="412.892117" y="403.820462" transform="rotate(-0 412.892117 403.820462)">−1</text>
     </g>
    </g>
    <g id="ytick_7">
     <g id="line2d_35">
      <path d="M 419.892117 345.769656 
L 740.056406 345.769656 
" clip-path="url(#p5c294e41ce)" style="fill: none; stroke: #b0b0b0; stroke-opacity: 0.25; stroke-width: 0.8; stroke-linecap: square"/>
     </g>
     <g id="line2d_36">
      <g>
       <use xlink:href="#m15be737257" x="419.892117" y="345.769656" style="stroke: #000000; stroke-width: 0.8"/>
      </g>
     </g>
     <g id="text_19">
      <text style="font-size: 11px; font-family: 'DejaVu Sans', 'Bitstream Vera Sans', 'Computer Modern Sans Serif', 'Lucida Grande', 'Verdana', 'Geneva', 'Lucid', 'Arial', 'Helvetica', 'Avant Garde', sans-serif; text-anchor: end" x="412.892117" y="349.948367" transform="rotate(-0 412.892117 349.948367)">0</text>
     </g>
    </g>
    <g id="ytick_8">
     <g id="line2d_37">
      <path d="M 419.892117 291.897561 
L 740.056406 291.897561 
" clip-path="url(#p5c294e41ce)" style="fill: none; stroke: #b0b0b0; stroke-opacity: 0.25; stroke-width: 0.8; stroke-linecap: square"/>
     </g>
     <g id="line2d_38">
      <g>
       <use xlink:href="#m15be737257" x="419.892117" y="291.897561" style="stroke: #000000; stroke-width: 0.8"/>
      </g>
     </g>
     <g id="text_20">
      <text style="font-size: 11px; font-family: 'DejaVu Sans', 'Bitstream Vera Sans', 'Computer Modern Sans Serif', 'Lucida Grande', 'Verdana', 'Geneva', 'Lucid', 'Arial', 'Helvetica', 'Avant Garde', sans-serif; text-anchor: end" x="412.892117" y="296.076272" transform="rotate(-0 412.892117 296.076272)">1</text>
     </g>
    </g>
    <g id="ytick_9">
     <g id="line2d_39">
      <path d="M 419.892117 238.025466 
L 740.056406 238.025466 
" clip-path="url(#p5c294e41ce)" style="fill: none; stroke: #b0b0b0; stroke-opacity: 0.25; stroke-width: 0.8; stroke-linecap: square"/>
     </g>
     <g id="line2d_40">
      <g>
       <use xlink:href="#m15be737257" x="419.892117" y="238.025466" style="stroke: #000000; stroke-width: 0.8"/>
      </g>
     </g>
     <g id="text_21">
      <text style="font-size: 11px; font-family: 'DejaVu Sans', 'Bitstream Vera Sans', 'Computer Modern Sans Serif', 'Lucida Grande', 'Verdana', 'Geneva', 'Lucid', 'Arial', 'Helvetica', 'Avant Garde', sans-serif; text-anchor: end" x="412.892117" y="242.204177" transform="rotate(-0 412.892117 242.204177)">2</text>
     </g>
    </g>
    <g id="ytick_10">
     <g id="line2d_41">
      <path d="M 419.892117 184.153371 
L 740.056406 184.153371 
" clip-path="url(#p5c294e41ce)" style="fill: none; stroke: #b0b0b0; stroke-opacity: 0.25; stroke-width: 0.8; stroke-linecap: square"/>
     </g>
     <g id="line2d_42">
      <g>
       <use xlink:href="#m15be737257" x="419.892117" y="184.153371" style="stroke: #000000; stroke-width: 0.8"/>
      </g>
     </g>
     <g id="text_22">
      <text style="font-size: 11px; font-family: 'DejaVu Sans', 'Bitstream Vera Sans', 'Computer Modern Sans Serif', 'Lucida Grande', 'Verdana', 'Geneva', 'Lucid', 'Arial', 'Helvetica', 'Avant Garde', sans-serif; text-anchor: end" x="412.892117" y="188.332081" transform="rotate(-0 412.892117 188.332081)">3</text>
     </g>
    </g>
    <g id="ytick_11">
     <g id="line2d_43">
      <path d="M 419.892117 130.281275 
L 740.056406 130.281275 
" clip-path="url(#p5c294e41ce)" style="fill: none; stroke: #b0b0b0; stroke-opacity: 0.25; stroke-width: 0.8; stroke-linecap: square"/>
     </g>
     <g id="line2d_44">
      <g>
       <use xlink:href="#m15be737257" x="419.892117" y="130.281275" style="stroke: #000000; stroke-width: 0.8"/>
      </g>
     </g>
     <g id="text_23">
      <text style="font-size: 11px; font-family: 'DejaVu Sans', 'Bitstream Vera Sans', 'Computer Modern Sans Serif', 'Lucida Grande', 'Verdana', 'Geneva', 'Lucid', 'Arial', 'Helvetica', 'Avant Garde', sans-serif; text-anchor: end" x="412.892117" y="134.459986" transform="rotate(-0 412.892117 134.459986)">4</text>
     </g>
    </g>
    <g id="text_24">
     <!-- $f'(x)$ -->
     <g transform="translate(390.033132 259.235875) rotate(-90)">
      <text>
       <tspan x="0" y="-0.147625" style="font-style: oblique; font-size: 11px; font-family: 'DejaVu Sans'">f</tspan>
       <tspan x="11.400993" y="-0.147625" style="font-style: oblique; font-size: 11px; font-family: 'DejaVu Sans'">x</tspan>
       <tspan x="4.69196" y="-4.690625" style="font-size: 7.7px; font-family: 'cmsy10'">0</tspan>
       <tspan x="7.109489" y="-0.147625" style="font-size: 11px; font-family: 'DejaVu Sans'">(</tspan>
       <tspan x="17.910758" y="-0.147625" style="font-size: 11px; font-family: 'DejaVu Sans'">)</tspan>
      </text>
     </g>
    </g>
   </g>
   <g id="line2d_45">
    <path d="M 434.445039 96.611216 
L 440.277874 120.415447 
L 446.110708 143.246089 
L 451.943543 165.103144 
L 457.193094 183.942075 
L 462.442645 201.9924 
L 467.692196 219.254118 
L 472.941747 235.72723 
L 478.191298 251.411735 
L 482.857566 264.691478 
L 487.523834 277.348124 
L 492.190101 289.381674 
L 496.856369 300.792127 
L 501.522637 311.579484 
L 505.605621 320.507288 
L 509.688605 328.958033 
L 513.771589 336.93172 
L 517.854573 344.428349 
L 521.937558 351.44792 
L 526.020542 357.990432 
L 529.520243 363.218601 
L 533.019943 368.096277 
L 536.519644 372.623462 
L 540.019345 376.800156 
L 543.519045 380.626357 
L 547.018746 384.102067 
L 550.518447 387.227285 
L 553.434864 389.563897 
L 556.351282 391.657111 
L 559.267699 393.506929 
L 562.184116 395.113349 
L 565.100533 396.476373 
L 568.016951 397.595999 
L 570.933368 398.472228 
L 573.849785 399.105061 
L 576.766203 399.494496 
L 579.68262 399.640534 
L 582.599037 399.543175 
L 585.515454 399.202419 
L 588.431872 398.618267 
L 591.348289 397.790717 
L 594.264706 396.71977 
L 597.181124 395.405426 
L 600.097541 393.847684 
L 603.013958 392.046546 
L 605.930375 390.002011 
L 608.846793 387.714079 
L 611.76321 385.18275 
L 615.262911 381.823871 
L 618.762611 378.1145 
L 622.262312 374.054637 
L 625.762013 369.644283 
L 629.261714 364.883436 
L 632.761414 359.772098 
L 636.261115 354.310269 
L 640.344099 347.495152 
L 644.427084 340.202976 
L 648.510068 332.433743 
L 652.593052 324.187451 
L 656.676036 315.464101 
L 660.75902 306.263693 
L 665.425288 295.164787 
L 670.091556 283.442786 
L 674.757823 271.097688 
L 679.424091 258.129493 
L 684.090359 244.538203 
L 688.756626 230.323815 
L 694.006177 213.587835 
L 699.255728 196.063248 
L 704.50528 177.750054 
L 709.754831 158.648254 
L 715.004382 138.757848 
L 720.837216 115.732488 
L 725.503484 96.611216 
L 725.503484 96.611216 
" clip-path="url(#p5c294e41ce)" style="fill: none; stroke: #7c3aed; stroke-width: 2.4; stroke-linecap: square"/>
   </g>
   <g id="line2d_46">
    <path d="M 419.892117 345.769656 
L 740.056406 345.769656 
" clip-path="url(#p5c294e41ce)" style="fill: none; stroke: #94a3b8; stroke-width: 1.5; stroke-linecap: square"/>
   </g>
   <g id="patch_6">
    <path d="M 419.892117 414.792 
L 419.892117 81.45975 
" style="fill: none; stroke: #000000; stroke-width: 0.8; stroke-linejoin: miter; stroke-linecap: square"/>
   </g>
   <g id="patch_7">
    <path d="M 419.892117 414.792 
L 740.056406 414.792 
" style="fill: none; stroke: #000000; stroke-width: 0.8; stroke-linejoin: miter; stroke-linecap: square"/>
   </g>
   <g id="text_25">
    <text style="font-size: 13px; font-family: 'DejaVu Sans', 'Bitstream Vera Sans', 'Computer Modern Sans Serif', 'Lucida Grande', 'Verdana', 'Geneva', 'Lucid', 'Arial', 'Helvetica', 'Avant Garde', sans-serif; text-anchor: middle" x="579.974262" y="75.45975" transform="rotate(-0 579.974262 75.45975)">Derivative function</text>
   </g>
  </g>
  <g id="text_26">
   <text style="font-weight: 700; font-size: 16px; font-family: 'DejaVu Sans', 'Bitstream Vera Sans', 'Computer Modern Sans Serif', 'Lucida Grande', 'Verdana', 'Geneva', 'Lucid', 'Arial', 'Helvetica', 'Avant Garde', sans-serif; text-anchor: middle" x="373.936406" y="19.3575" transform="rotate(-0 373.936406 19.3575)">Differentiation</text>
  </g>
 </g>
 <defs>
  <clipPath id="p9da45c559d">
   <rect x="30.416406" y="81.45975" width="320.164289" height="333.33225"/>
  </clipPath>
  <clipPath id="p5c294e41ce">
   <rect x="419.892117" y="81.45975" width="320.164289" height="333.33225"/>
  </clipPath>
 </defs>
</svg>
