<?xml version="1.0" encoding="utf-8" standalone="no"?>
<!DOCTYPE svg PUBLIC "-//W3C//DTD SVG 1.1//EN"
  "http://www.w3.org/Graphics/SVG/1.1/DTD/svg11.dtd">
<svg xmlns:xlink="http://www.w3.org/1999/xlink" width="746.64pt" height="439.992pt" viewBox="0 0 746.64 439.992" xmlns="http://www.w3.org/2000/svg" version="1.1">
 <metadata>
  <rdf:RDF xmlns:dc="http://purl.org/dc/elements/1.1/" xmlns:cc="http://creativecommons.org/ns#" xmlns:rdf="http://www.w3.org/1999/02/22-rdf-syntax-ns#">
   <cc:Work>
    <dc:type rdf:resource="http://purl.org/dc/dcmitype/StillImage"/>
    <dc:date>2026-07-03T10:42:57.784467</dc:date>
    <dc:format>image/svg+xml</dc:format>
    <dc:creator>
     <cc:Agent>
      <dc:title>Matplotlib v3.11.0, https://matplotlib.org/</dc:title>
     </cc:Agent>
    </dc:creator>
   </cc:Work>
  </rdf:RDF>
 </metadata>
 <defs>
  <style type="text/css">*{stroke-linejoin: round; stroke-linecap: butt}</style>
 </defs>
 <g id="figure_1">
  <g id="patch_1">
   <path d="M 0 439.992 
L 746.64 439.992 
L 746.64 0 
L 0 0 
z
" style="fill: #ffffff"/>
  </g>
  <g id="axes_1">
   <g id="patch_2">
    <path d="M 7.2 422.208375 
L 367.38 422.208375 
L 367.38 92.043375 
L 7.2 92.043375 
z
" style="fill: #ffffff"/>
   </g>
   <g id="PathCollection_1">
    <defs>
     <path id="m0890c609c6" d="M 0 4.472136 
C 1.186024 4.472136 2.323632 4.000923 3.162278 3.162278 
C 4.000923 2.323632 4.472136 1.186024 4.472136 0 
C 4.472136 -1.186024 4.000923 -2.323632 3.162278 -3.162278 
C 2.323632 -4.000923 1.186024 -4.472136 0 -4.472136 
C -1.186024 -4.472136 -2.323632 -4.000923 -3.162278 -3.162278 
C -4.000923 -2.323632 -4.472136 -1.186024 -4.472136 0 
C -4.472136 1.186024 -4.000923 2.323632 -3.162278 3.162278 
C -2.323632 4.000923 -1.186024 4.472136 0 4.472136 
z
" style="stroke: #475569"/>
    </defs>
    <g clip-path="url(#p549e82cedb)">
     <use xlink:href="#m0890c609c6" x="187.29" y="272.133375" style="fill: #475569; stroke: #475569"/>
    </g>
   </g>
   <g id="patch_3">
    <path d="M 187.29 270.136527 
Q 187.29 212.104784 187.29 156.309109 
" clip-path="url(#p549e82cedb)" style="fill: none; stroke: #2563eb; stroke-width: 2; stroke-linecap: round"/>
    <path d="M 184.49 161.909109 
L 187.29 156.309109 
L 190.09 161.909109 
z
" clip-path="url(#p549e82cedb)" style="fill: #2563eb; stroke: #2563eb; stroke-width: 2; stroke-linecap: round"/>
   </g>
   <g id="patch_4">
    <path d="M 185.654967 273.287516 
Q 136.26366 308.151968 88.699149 341.726917 
" clip-path="url(#p549e82cedb)" style="fill: none; stroke: #0f766e; stroke-width: 2; stroke-linecap: round"/>
    <path d="M 94.888882 340.785001 
L 88.699149 341.726917 
L 91.659456 336.209981 
z
" clip-path="url(#p549e82cedb)" style="fill: #0f766e; stroke: #0f766e; stroke-width: 2; stroke-linecap: round"/>
   </g>
   <g id="patch_5">
    <path d="M 188.925033 273.287516 
Q 238.31634 308.151968 285.880851 341.726917 
" clip-path="url(#p549e82cedb)" style="fill: none; stroke: #f97316; stroke-width: 2; stroke-linecap: round"/>
    <path d="M 282.920544 336.209981 
L 285.880851 341.726917 
L 279.691118 340.785001 
z
" clip-path="url(#p549e82cedb)" style="fill: #f97316; stroke: #f97316; stroke-width: 2; stroke-linecap: round"/>
   </g>
   <g id="matplotlib.axis_1"/>
   <g id="matplotlib.axis_2"/>
   <g id="text_1">
    <text style="font-size: 11px; font-family: 'DejaVu Sans', 'Bitstream Vera Sans', 'Computer Modern Sans Serif', 'Lucida Grande', 'Verdana', 'Geneva', 'Lucid', 'Arial', 'Helvetica', 'Avant Garde', sans-serif; text-anchor: start" x="193.293" y="170.082375" transform="rotate(-0 193.293 170.082375)">T</text>
   </g>
   <g id="text_2">
    <text style="font-size: 11px; font-family: 'DejaVu Sans', 'Bitstream Vera Sans', 'Computer Modern Sans Serif', 'Lucida Grande', 'Verdana', 'Geneva', 'Lucid', 'Arial', 'Helvetica', 'Avant Garde', sans-serif; text-anchor: start" x="79.236" y="353.173875" transform="rotate(-0 79.236 353.173875)">F</text>
   </g>
   <g id="text_3">
    <text style="font-size: 11px; font-family: 'DejaVu Sans', 'Bitstream Vera Sans', 'Computer Modern Sans Serif', 'Lucida Grande', 'Verdana', 'Geneva', 'Lucid', 'Arial', 'Helvetica', 'Avant Garde', sans-serif; text-anchor: start" x="277.335" y="353.173875" transform="rotate(-0 277.335 353.173875)">W</text>
   </g>
   <g id="text_4">
    <text style="font-size: 13px; font-family: 'DejaVu Sans', 'Bitstream Vera Sans', 'Computer Modern Sans Serif', 'Lucida Grande', 'Verdana', 'Geneva', 'Lucid', 'Arial', 'Helvetica', 'Avant Garde', sans-serif; text-anchor: middle" x="187.29" y="86.043375" transform="rotate(-0 187.29 86.043375)">Resultant force = 0</text>
   </g>
  </g>
  <g id="axes_2">
   <g id="patch_6">
    <path d="M 379.26 432.792 
L 739.44 432.792 
L 739.44 81.45975 
L 379.26 81.45975 
z
" style="fill: #ffffff"/>
   </g>
   <g id="PathCollection_2">
    <defs>
     <path id="m9538169a20" d="M 0 4.743416 
C 1.257969 4.743416 2.464584 4.24362 3.354102 3.354102 
C 4.24362 2.464584 4.743416 1.257969 4.743416 0 
C 4.743416 -1.257969 4.24362 -2.464584 3.354102 -3.354102 
C 2.464584 -4.24362 1.257969 -4.743416 0 -4.743416 
C -1.257969 -4.743416 -2.464584 -4.24362 -3.354102 -3.354102 
C -4.24362 -2.464584 -4.743416 -1.257969 -4.743416 0 
C -4.743416 1.257969 -4.24362 2.464584 -3.354102 3.354102 
C -2.464584 4.24362 -1.257969 4.743416 0 4.743416 
z
" style="stroke: #dc2626"/>
    </defs>
    <g clip-path="url(#p0e57c45c47)">
     <use xlink:href="#m9538169a20" x="559.35" y="257.125875" style="fill: #dc2626; stroke: #dc2626"/>
    </g>
   </g>
   <g id="patch_7">
    <path d="M 458.4996 144.940367 
Q 458.4996 195.642725 458.4996 244.109016 
" clip-path="url(#p0e57c45c47)" style="fill: none; stroke: #2563eb; stroke-width: 2; stroke-linecap: round"/>
    <path d="M 461.2996 238.509016 
L 458.4996 244.109016 
L 455.6996 238.509016 
z
" clip-path="url(#p0e57c45c47)" style="fill: #2563eb; stroke: #2563eb; stroke-width: 2; stroke-linecap: round"/>
   </g>
   <g id="patch_8">
    <path d="M 667.404 144.940367 
Q 667.404 195.642725 667.404 244.109016 
" clip-path="url(#p0e57c45c47)" style="fill: none; stroke: #f97316; stroke-width: 2; stroke-linecap: round"/>
    <path d="M 670.204 238.509016 
L 667.404 244.109016 
L 664.604 238.509016 
z
" clip-path="url(#p0e57c45c47)" style="fill: #f97316; stroke: #f97316; stroke-width: 2; stroke-linecap: round"/>
   </g>
   <g id="matplotlib.axis_3"/>
   <g id="matplotlib.axis_4"/>
   <g id="line2d_1">
    <path d="M 415.278 257.125875 
L 703.422 257.125875 
" clip-path="url(#p0e57c45c47)" style="fill: none; stroke: #475569; stroke-width: 6; stroke-linecap: round"/>
   </g>
   <g id="text_5">
    <text style="font-size: 11px; font-family: 'DejaVu Sans', 'Bitstream Vera Sans', 'Computer Modern Sans Serif', 'Lucida Grande', 'Verdana', 'Geneva', 'Lucid', 'Arial', 'Helvetica', 'Avant Garde', sans-serif; text-anchor: start" x="451.296" y="129.767934" transform="rotate(-0 451.296 129.767934)">F1</text>
   </g>
   <g id="text_6">
    <text style="font-size: 11px; font-family: 'DejaVu Sans', 'Bitstream Vera Sans', 'Computer Modern Sans Serif', 'Lucida Grande', 'Verdana', 'Geneva', 'Lucid', 'Arial', 'Helvetica', 'Avant Garde', sans-serif; text-anchor: start" x="660.2004" y="129.767934" transform="rotate(-0 660.2004 129.767934)">F2</text>
   </g>
   <g id="text_7">
    <text style="font-size: 11px; font-family: 'DejaVu Sans', 'Bitstream Vera Sans', 'Computer Modern Sans Serif', 'Lucida Grande', 'Verdana', 'Geneva', 'Lucid', 'Arial', 'Helvetica', 'Avant Garde', sans-serif; text-anchor: start; fill: #dc2626" x="548.5446" y="296.650753" transform="rotate(-0 548.5446 296.650753)">pivot</text>
   </g>
   <g id="text_8">
    <text style="font-size: 13px; font-family: 'DejaVu Sans', 'Bitstream Vera Sans', 'Computer Modern Sans Serif', 'Lucida Grande', 'Verdana', 'Geneva', 'Lucid', 'Arial', 'Helvetica', 'Avant Garde', sans-serif; text-anchor: middle" x="559.35" y="75.45975" transform="rotate(-0 559.35 75.45975)">Moment balance</text>
   </g>
  </g>
  <g id="text_9">
   <text style="font-weight: 700; font-size: 16px; font-family: 'DejaVu Sans', 'Bitstream Vera Sans', 'Computer Modern Sans Serif', 'Lucida Grande', 'Verdana', 'Geneva', 'Lucid', 'Arial', 'Helvetica', 'Avant Garde', sans-serif; text-anchor: middle" x="373.32" y="19.3575" transform="rotate(-0 373.32 19.3575)">Forces and Equilibrium</text>
  </g>
 </g>
 <defs>
  <clipPath id="p549e82cedb">
   <rect x="7.2" y="92.043375" width="360.18" height="330.165"/>
  </clipPath>
  <clipPath id="p0e57c45c47">
   <rect x="379.26" y="81.45975" width="360.18" height="351.33225"/>
  </clipPath>
 </defs>
</svg>
